<?xml version="1.0" encoding="UTF-8"?>
<svg width="138px" height="91px" viewBox="0 0 138 91" version="1.1" xmlns="http://www.w3.org/2000/svg" xmlns:xlink="http://www.w3.org/1999/xlink">
    <!-- Generator: Sketch 54.1 (76490) - https://sketchapp.com -->
    <title>Group 59</title>
    <desc>Created with Sketch.</desc>
    <defs>
        <polygon id="path-1" points="0.553338483 0.857702343 36.318845 0.857702343 36.318845 19 0.553338483 19"></polygon>
        <polygon id="path-3" points="0 90.7086 137.319 90.7086 137.319 -0.0004 0 -0.0004"></polygon>
    </defs>
    <g id="BM-Website-1.0" stroke="none" stroke-width="1" fill="none" fill-rule="evenodd">
        <g id="BM---Black---Desktop---BM-Foundation" transform="translate(-58.000000, -56.000000)">
            <g id="Group-59" transform="translate(58.000000, 56.000000)">
                <path d="M85.9797,63.3563 L85.7917,63.8903 C85.7557,64.0743 85.7377,64.2603 85.7087,64.4443 C85.7307,64.6273 85.7257,64.8153 85.7647,64.9953 C85.8277,65.1683 85.8437,65.3563 85.9417,65.5183 C86.2527,66.1943 86.8097,66.7393 87.4167,67.1923 C88.6537,68.0903 90.1037,68.6863 91.5657,69.1653 C93.0297,69.6443 94.5297,70.0103 96.0567,70.2163 C97.5837,70.4183 99.1347,70.4603 100.6727,70.3243 C103.7437,70.0493 106.7697,69.1033 109.4017,67.4643 C110.7207,66.6583 111.9587,65.6923 112.9657,64.5213 C113.9657,63.3553 114.7077,61.9243 114.8247,60.3803 C114.8297,60.3183 114.8827,60.2713 114.9457,60.2763 C115.0067,60.2813 115.0527,60.3353 115.0497,60.3963 C114.9577,62.0013 114.2107,63.5023 113.2037,64.7183 C112.1897,65.9433 110.9547,66.9633 109.6257,67.8183 C106.9787,69.5573 103.8927,70.6233 100.7317,70.9423 C99.1507,71.1073 97.5507,71.0883 95.9717,70.9053 C94.3917,70.7223 92.8287,70.3663 91.3407,69.8003 C89.8567,69.2433 88.4097,68.5353 87.1547,67.5283 C86.5387,67.0203 85.9617,66.4103 85.6487,65.6413 C85.5517,65.4603 85.5357,65.2443 85.4777,65.0473 C85.4437,64.8443 85.4567,64.6343 85.4457,64.4293 C85.4827,64.2273 85.5137,64.0233 85.5617,63.8273 L85.7907,63.2633 C85.8117,63.2103 85.8737,63.1843 85.9267,63.2063 C85.9787,63.2263 86.0047,63.2853 85.9867,63.3373 L85.9797,63.3563 Z" id="Fill-1" fill="#FEFEFE"></path>
                <path d="M84.261,67.0849 C83.909,67.5239 83.499,67.9259 83.033,68.2499 C82.572,68.5809 82.059,68.8299 81.573,69.0819 C81.088,69.3319 80.649,69.6359 80.379,70.0769 C80.105,70.5139 79.974,71.0229 80.075,71.5089 C80.168,71.9949 80.447,72.4409 80.804,72.8139 C81.157,73.1899 81.593,73.4969 82.053,73.7399 C83.02,74.2249 84.03,74.6489 85.065,74.9849 C87.133,75.6779 89.304,76.0579 91.491,76.2469 C93.686,76.4259 95.895,76.4879 98.09,76.3729 C100.283,76.2499 102.474,75.9759 104.597,75.4199 C106.711,74.8599 108.792,74.0699 110.636,72.9029 C112.481,71.7309 114.078,70.1749 115.371,68.4069 C116.009,67.5269 116.478,66.5229 116.61,65.4479 C116.676,64.9139 116.669,64.3689 116.597,63.8299 C116.518,63.2919 116.373,62.7639 116.194,62.2449 C116.173,62.1889 116.201,62.1279 116.257,62.1059 C116.312,62.0869 116.373,62.1149 116.395,62.1689 C116.803,63.2079 117.054,64.3469 116.919,65.4849 C116.803,66.6219 116.324,67.6999 115.68,68.6229 C114.397,70.4599 112.789,72.0819 110.904,73.3159 C107.089,75.7469 102.573,76.7759 98.127,77.0449 C95.894,77.1739 93.659,77.1219 91.433,76.9529 C89.204,76.7719 86.973,76.3989 84.829,75.6889 C83.765,75.3139 82.721,74.8809 81.739,74.3089 C81.234,74.0089 80.765,73.6459 80.383,73.1899 C79.999,72.7439 79.69,72.1979 79.607,71.5829 C79.512,70.9689 79.719,70.3379 80.061,69.8609 C80.407,69.3669 80.925,69.0359 81.427,68.7959 C81.932,68.5509 82.427,68.3269 82.877,68.0229 C83.33,67.7269 83.732,67.3559 84.084,66.9389 C84.125,66.8919 84.198,66.8849 84.246,66.9259 C84.293,66.9659 84.3,67.0369 84.261,67.0849" id="Fill-3" fill="#FEFEFE"></path>
                <path d="M78.0695,70.6444 C75.1675,71.8304 72.1955,72.8434 69.4315,74.2784 C69.0895,74.4584 68.7465,74.6404 68.4145,74.8364 C68.0725,75.0254 67.7955,75.2234 67.5745,75.4894 C67.1145,76.0034 67.0905,76.7234 67.4645,77.2784 C67.8055,77.8444 68.4815,78.2164 69.1585,78.5374 C69.8455,78.8504 70.5705,79.1154 71.3065,79.3414 C72.7825,79.7964 74.3015,80.1404 75.8295,80.4214 C77.3515,80.6974 78.8975,80.8554 80.4525,80.9744 C83.5615,81.2074 86.6875,81.2974 89.8105,81.3104 C92.9355,81.3234 96.0545,81.2724 99.1485,80.8954 C102.2395,80.5354 105.3095,79.9184 108.2305,78.8564 C111.1395,77.7894 113.9085,76.2524 116.1825,74.1454 C117.2985,73.0784 118.3305,71.8834 119.0135,70.5064 C119.3395,69.8194 119.5815,69.0694 119.5235,68.3224 C119.4785,67.5714 119.0405,66.8984 118.4225,66.4574 C118.3715,66.4214 118.3595,66.3504 118.3955,66.2994 C118.4305,66.2494 118.5025,66.2394 118.5525,66.2734 C119.2175,66.7214 119.7315,67.4674 119.7965,68.2964 C119.8755,69.1204 119.6295,69.9204 119.2975,70.6404 C118.6015,72.0834 117.5655,73.3104 116.4395,74.4144 C114.1435,76.5994 111.3465,78.1954 108.3975,79.3064 C105.4405,80.4154 102.3365,81.0684 99.2175,81.4624 C96.0955,81.8704 92.9415,81.9644 89.8095,81.9674 C86.6735,81.9674 83.5365,81.8894 80.4005,81.6674 C78.8355,81.5534 77.2615,81.4004 75.7025,81.1234 C74.1505,80.8434 72.6095,80.5014 71.0915,80.0404 C70.3345,79.8044 69.5785,79.5474 68.8475,79.1974 C68.4825,79.0224 68.1215,78.8284 67.7775,78.5834 C67.4335,78.3484 67.0975,78.0274 66.8675,77.6414 C66.6335,77.2584 66.5095,76.7844 66.5515,76.3174 C66.5965,75.8484 66.8115,75.4124 67.1135,75.0874 C67.4055,74.7584 67.7935,74.5174 68.1425,74.3444 C68.4935,74.1584 68.8505,73.9894 69.2085,73.8204 C72.0815,72.5144 75.0645,71.5424 77.9885,70.4464 L77.9915,70.4454 C78.0475,70.4234 78.1085,70.4524 78.1295,70.5074 C78.1495,70.5624 78.1235,70.6234 78.0695,70.6444" id="Fill-5" fill="#FEFEFE"></path>
                <path d="M69.1301,81.5663 C74.0641,83.7753 79.4081,84.9863 84.7871,85.3913 C87.4791,85.6023 90.1801,85.6183 92.8791,85.5123 C95.5771,85.4113 98.2711,85.1893 100.9401,84.8123 C103.6091,84.4383 106.2511,83.8873 108.8271,83.1233 C110.1101,82.7253 111.3791,82.2843 112.6151,81.7673 C113.8531,81.2383 115.0831,80.6863 116.2801,80.0823 C117.4781,79.4763 118.6531,78.8313 119.7601,78.0913 C120.8531,77.3423 121.9151,76.5103 122.6671,75.4403 C123.4001,74.3853 123.9031,73.0453 123.3541,71.8243 C122.8641,70.6073 121.9561,69.5613 120.9631,68.6743 C120.9161,68.6343 120.9101,68.5653 120.9501,68.5183 C120.9891,68.4733 121.0591,68.4683 121.1061,68.5053 C122.1491,69.3793 123.1131,70.4003 123.6881,71.6883 C123.9641,72.3243 124.0991,73.0893 123.9121,73.7903 C123.7681,74.4823 123.4731,75.1383 123.0911,75.7263 C122.3221,76.9113 121.2491,77.8283 120.1421,78.6373 C119.0261,79.4463 117.8301,80.1223 116.6141,80.7423 C114.1771,81.9623 111.6451,83.0043 109.0201,83.7723 C106.3971,84.5253 103.7181,85.0573 101.0221,85.4093 C98.3241,85.7713 95.6091,85.9503 92.8951,86.0143 C90.1821,86.0833 87.4591,86.0263 84.7541,85.7743 C79.3521,85.2683 73.9811,84.0433 69.0341,81.7783 C68.9761,81.7513 68.9501,81.6823 68.9771,81.6243 C69.0031,81.5663 69.0711,81.5413 69.1301,81.5663" id="Fill-7" fill="#FEFEFE"></path>
                <path d="M78.3723,87.2753 C81.0293,87.8343 83.7233,88.2293 86.4253,88.4903 C89.1273,88.7473 91.8463,88.8673 94.5493,88.7193 C99.9673,88.3883 105.3653,87.6453 110.6653,86.4863 C113.3163,85.9063 115.9393,85.2093 118.5293,84.4063 C121.1033,83.6023 123.6103,82.5503 125.8583,81.0913 C126.9773,80.3603 128.0353,79.5303 128.9313,78.5603 C129.3793,78.0793 129.7963,77.5663 130.1193,77.0103 C130.4523,76.4593 130.6893,75.8793 130.6363,75.2833 C130.5993,74.6893 130.2883,74.1203 129.8583,73.6433 C129.4283,73.1643 128.8963,72.7573 128.3323,72.4023 C127.1993,71.6893 125.9433,71.1643 124.6843,70.6533 C124.6253,70.6293 124.5973,70.5623 124.6203,70.5033 C124.6433,70.4463 124.7083,70.4183 124.7663,70.4373 C126.0493,70.8863 127.3433,71.3533 128.5523,72.0343 C129.1553,72.3743 129.7393,72.7703 130.2463,73.2803 C130.7473,73.7823 131.1753,74.4473 131.2663,75.2203 C131.3693,75.9973 131.0863,76.7543 130.7453,77.3703 C130.3913,77.9953 129.9553,78.5553 129.4783,79.0703 C128.5183,80.0933 127.4103,80.9463 126.2473,81.6933 C123.9123,83.1833 121.3423,84.2323 118.7223,85.0303 C116.1083,85.8283 113.4593,86.4953 110.7883,87.0563 C105.4433,88.1713 100.0193,88.8693 94.5703,89.1473 C91.8353,89.2623 89.1023,89.1063 86.3923,88.8153 C83.6813,88.5193 80.9853,88.0893 78.3233,87.4963 C78.2633,87.4823 78.2253,87.4213 78.2383,87.3613 C78.2513,87.3003 78.3113,87.2623 78.3723,87.2753" id="Fill-9" fill="#FEFEFE"></path>
                <g id="Group-13" transform="translate(101.000000, 71.708600)">
                    <mask id="mask-2" fill="white">
                        <use xlink:href="#path-1"></use>
                    </mask>
                    <g id="Clip-12"></g>
                    <path d="M0.6604,18.7718 C4.5894,18.5268 8.5004,18.0288 12.3504,17.2568 C14.2744,16.8668 16.1744,16.3678 18.0604,15.8138 C19.9464,15.2608 21.8154,14.6508 23.6604,13.9788 C25.5054,13.3068 27.3284,12.5748 29.0924,11.7318 C30.8604,10.8938 32.5314,9.9098 33.9314,8.5838 C34.6244,7.9328 35.2704,7.2008 35.6184,6.3498 C35.7904,5.9268 35.8644,5.4748 35.7964,5.0368 C35.7304,4.6018 35.5064,4.1858 35.2124,3.8188 C34.6264,3.0838 33.7914,2.5548 32.9184,2.1378 C32.0394,1.7198 31.1074,1.4048 30.1764,1.0828 C30.1154,1.0608 30.0844,0.9958 30.1044,0.9348 C30.1254,0.8758 30.1894,0.8448 30.2484,0.8628 C31.1874,1.1558 32.1384,1.4438 33.0534,1.8428 C33.9624,2.2438 34.8604,2.7628 35.5374,3.5538 C35.8674,3.9458 36.1514,4.4108 36.2644,4.9498 C36.3764,5.4838 36.3074,6.0428 36.1324,6.5398 C35.7754,7.5428 35.1084,8.3518 34.4024,9.0708 C33.6804,9.7828 32.8894,10.4068 32.0304,10.9438 C31.1724,11.4748 30.2804,11.9188 29.3804,12.3418 C27.5774,13.1768 25.7294,13.8928 23.8634,14.5468 C21.9974,15.2028 20.1104,15.7928 18.2084,16.3278 C16.3064,16.8598 14.3854,17.3408 12.4414,17.7128 C8.5564,18.4678 4.6124,18.8318 0.6724,19.0008 C0.6084,19.0018 0.5564,18.9538 0.5534,18.8908 C0.5514,18.8288 0.5984,18.7758 0.6604,18.7718" id="Fill-11" fill="#FEFEFE" mask="url(#mask-2)"></path>
                </g>
                <path d="M79.7649,18.2362 C79.7469,18.7072 79.8319,19.1702 80.0269,19.5842 C80.2199,19.9992 80.5189,20.3562 80.8509,20.6762 C81.5239,21.3132 82.3769,21.7662 83.2329,22.1542 C84.0659,22.5102 85.0309,22.6942 85.9699,22.8562 C86.9169,23.0142 87.8759,23.1212 88.8369,23.2062 C92.6849,23.5062 96.5779,23.4932 100.4009,22.9832 C104.2369,22.4622 108.0509,21.7042 111.7259,20.5242 C113.5529,19.9162 115.3589,19.1902 116.9619,18.1462 C117.7509,17.6192 118.5149,17.0152 119.0629,16.2602 C119.6149,15.5132 119.8699,14.5462 119.6389,13.6262 C119.6239,13.5672 119.6609,13.5072 119.7189,13.4922 C119.7769,13.4772 119.8339,13.5112 119.8519,13.5662 C119.9999,14.0462 120.0479,14.5682 119.9549,15.0712 C119.8659,15.5752 119.6559,16.0522 119.3779,16.4752 C118.8009,17.3152 118.0359,17.9692 117.2229,18.5322 C115.5849,19.6522 113.7619,20.4292 111.9199,21.0892 C108.2199,22.4022 104.3609,23.1422 100.4989,23.6982 C98.5539,23.9642 96.5969,24.0942 94.6399,24.1292 C92.6829,24.1672 90.7249,24.0962 88.7739,23.9102 C87.7989,23.8142 86.8249,23.6952 85.8549,23.5242 C84.8849,23.3422 83.9199,23.1592 82.9629,22.7432 C82.0679,22.3002 81.2089,21.7632 80.5009,21.0222 C80.1499,20.6532 79.8599,20.2122 79.6819,19.7262 C79.5029,19.2392 79.4589,18.7092 79.5459,18.2122 C79.5559,18.1522 79.6139,18.1122 79.6739,18.1222 C79.7289,18.1322 79.7679,18.1822 79.7649,18.2362" id="Fill-14" fill="#FEFEFE"></path>
                <path d="M79.5022,21.497 C79.4182,22.503 79.7522,23.497 80.3402,24.298 C80.9272,25.101 81.7132,25.761 82.5872,26.23 C83.4752,26.697 84.4412,27.021 85.4252,27.256 C86.4092,27.497 87.4182,27.647 88.4342,27.745 C92.5162,28.044 96.6552,28.021 100.7382,27.59 C104.8222,27.153 108.8742,26.342 112.7732,25.035 C114.7122,24.379 116.6152,23.56 118.2222,22.306 C118.6252,21.997 118.9992,21.652 119.3532,21.288 C119.7142,20.925 120.0152,20.536 120.2582,20.091 C120.7312,19.22 121.0512,18.192 120.8372,17.215 L120.8372,17.212 C120.8232,17.149 120.8622,17.087 120.9252,17.074 C120.9862,17.06 121.0472,17.099 121.0622,17.159 C121.3272,18.219 121.0292,19.317 120.5452,20.247 C120.3042,20.716 119.9752,21.158 119.6142,21.535 C119.2582,21.919 118.8782,22.285 118.4682,22.614 C116.8362,23.95 114.8942,24.82 112.9422,25.519 C109.0242,26.903 104.9452,27.83 100.8132,28.273 C96.6802,28.716 92.5172,28.827 88.3642,28.421 C86.2952,28.194 84.1892,27.75 82.3302,26.694 C81.4052,26.154 80.5862,25.429 80.0042,24.526 C79.4192,23.635 79.1052,22.528 79.2772,21.47 C79.2872,21.408 79.3462,21.366 79.4072,21.375 C79.4662,21.385 79.5072,21.439 79.5022,21.497" id="Fill-16" fill="#FEFEFE"></path>
                <path d="M79.3781,25.5643 C79.4611,26.5613 79.8621,27.5143 80.4151,28.3413 C80.9751,29.1673 81.6811,29.8983 82.5151,30.4323 C83.3381,30.9883 84.2971,31.2373 85.2951,31.3813 C86.2881,31.5333 87.3041,31.5953 88.3221,31.6453 C90.3601,31.7423 92.4181,31.7763 94.4711,32.0553 C95.4961,32.1913 96.5071,32.3863 97.5101,32.5543 C98.5151,32.7213 99.5051,32.8563 100.4951,32.7973 C102.4861,32.7583 104.3111,31.7313 106.3231,31.2013 C108.3101,30.6323 110.3251,30.2573 112.2811,29.7103 C114.2351,29.1713 116.1321,28.4123 117.7791,27.2493 C118.5831,26.6663 119.3001,25.9433 119.8781,25.1283 C120.4431,24.3123 120.8921,23.3753 120.9251,22.3753 C120.9261,22.3153 120.9761,22.2673 121.0361,22.2683 C121.0951,22.2693 121.1411,22.3173 121.1441,22.3753 C121.1631,23.4393 120.7491,24.4613 120.1801,25.3313 C119.6081,26.2093 118.8861,26.9813 118.0421,27.6123 C116.3661,28.8593 114.4051,29.6533 112.4291,30.2263 C110.4481,30.8043 108.4381,31.2033 106.4941,31.7853 C105.5231,32.0703 104.5821,32.4343 103.6071,32.7783 C102.6351,33.1263 101.5821,33.3873 100.5261,33.4253 C99.4691,33.4873 98.4171,33.3423 97.4061,33.1743 C96.3911,33.0043 95.3911,32.8123 94.3871,32.6783 C92.3801,32.4173 90.3391,32.3413 88.2911,32.2223 C87.2671,32.1593 86.2371,32.0843 85.2091,31.9133 C84.6951,31.8293 84.1831,31.7043 83.6811,31.5363 C83.1751,31.3723 82.6921,31.1093 82.2601,30.8143 C81.3851,30.2193 80.6541,29.4313 80.1101,28.5353 C79.5681,27.6433 79.1911,26.6303 79.1481,25.5773 C79.1461,25.5133 79.1941,25.4603 79.2581,25.4573 C79.3201,25.4553 79.3721,25.5033 79.3781,25.5643" id="Fill-18" fill="#FEFEFE"></path>
                <path d="M79.466,29.4081 C79.73,30.4111 80.082,31.3961 80.603,32.2811 C81.116,33.1651 81.791,33.9561 82.636,34.5051 C83.052,34.7791 83.515,35.0081 83.984,35.1451 C84.465,35.2821 84.976,35.3681 85.486,35.4461 C86.509,35.6001 87.548,35.7011 88.587,35.7981 C90.667,35.9911 92.758,36.1281 94.847,36.4381 C95.369,36.5161 95.892,36.6041 96.415,36.7251 C96.677,36.7881 96.938,36.8551 97.2,36.9451 C97.464,37.0251 97.732,37.1621 97.95,37.2591 C98.867,37.6911 99.852,37.8851 100.825,37.7311 C101.304,37.6531 101.78,37.4871 102.247,37.2871 C102.724,37.0901 103.151,36.8431 103.67,36.6191 C104.68,36.2111 105.696,35.9721 106.704,35.6861 C108.719,35.1371 110.714,34.5401 112.627,33.7301 C114.544,32.9351 116.362,31.9141 118.038,30.6931 C118.455,30.3861 118.861,30.0621 119.257,29.7281 C119.632,29.4041 119.942,28.9971 120.195,28.5551 C120.696,27.6681 121.03,26.6731 121.183,25.6521 C121.191,25.5971 121.24,25.5581 121.295,25.5661 C121.349,25.5731 121.386,25.6221 121.382,25.6751 C121.279,26.7291 121.001,27.7751 120.487,28.7191 C120.233,29.1911 119.913,29.6381 119.505,30.0111 C119.111,30.3611 118.707,30.7011 118.29,31.0261 C116.624,32.3271 114.762,33.3641 112.829,34.2041 C110.896,35.0501 108.877,35.6791 106.863,36.2541 C105.862,36.5471 104.842,36.8161 103.909,37.1911 C103.005,37.6061 102.031,38.1661 100.925,38.3461 C100.362,38.4321 99.816,38.4241 99.26,38.3321 C98.708,38.2391 98.185,38.0501 97.695,37.8311 C96.794,37.3721 95.781,37.2251 94.754,37.0611 C92.7,36.7691 90.613,36.6001 88.53,36.3791 C87.487,36.2681 86.444,36.1541 85.4,35.9831 C84.878,35.8921 84.357,35.7891 83.835,35.6251 C83.305,35.4531 82.826,35.1961 82.378,34.8851 C81.481,34.2641 80.778,33.4011 80.292,32.4531 C79.791,31.5071 79.479,30.4861 79.257,29.4571 C79.244,29.3991 79.281,29.3421 79.339,29.3291 C79.396,29.3171 79.451,29.3531 79.466,29.4081" id="Fill-20" fill="#FEFEFE"></path>
                <path d="M120.966,38.5053 C120.316,40.2593 119.251,41.8913 117.814,43.1333 C117.1,43.7583 116.291,44.2663 115.452,44.6983 C115.033,44.9153 114.602,45.1063 114.17,45.2893 C113.745,45.4643 113.328,45.6563 112.918,45.8633 C112.097,46.2743 111.3,46.7523 110.468,47.1863 C110.062,47.4093 109.609,47.6043 109.24,47.8183 C108.858,48.0473 108.487,48.3173 108.116,48.5923 C106.648,49.7083 105.112,50.8743 103.308,51.5353 C101.523,52.2093 99.519,52.3903 97.651,51.9123 C95.77,51.4513 94.16,50.4413 92.461,49.7743 C90.765,49.0903 88.951,48.6473 87.202,47.9143 C86.336,47.5293 85.503,47.0383 84.778,46.4253 C84.056,45.8103 83.416,45.1163 82.836,44.3823 C82.794,44.3313 82.803,44.2553 82.855,44.2143 C82.904,44.1753 82.975,44.1813 83.018,44.2273 C84.273,45.5853 85.697,46.7823 87.409,47.4223 C89.105,48.0993 90.936,48.4983 92.692,49.2063 C94.445,49.9023 96.042,50.8973 97.796,51.3243 C99.537,51.7733 101.412,51.6093 103.099,50.9763 C104.804,50.3463 106.296,49.2603 107.79,48.1503 C108.168,47.8753 108.553,47.6013 108.971,47.3573 C109.411,47.1113 109.819,46.9463 110.23,46.7273 C111.05,46.3093 111.856,45.8403 112.702,45.4273 C113.124,45.2203 113.555,45.0283 113.991,44.8533 C114.417,44.6783 114.839,44.4983 115.248,44.2933 C116.066,43.8823 116.847,43.4013 117.551,42.8223 C118.97,41.6673 120.012,40.1053 120.762,38.4203 C120.786,38.3643 120.852,38.3393 120.907,38.3643 C120.961,38.3883 120.987,38.4503 120.966,38.5053" id="Fill-22" fill="#FEFEFE"></path>
                <path d="M122.8703,30.4848 C122.3653,30.6268 122.0263,31.1098 121.8643,31.6018 C121.7103,32.1278 121.5943,32.6878 121.4843,33.2408 C121.2603,34.3468 121.0763,35.4968 120.5683,36.5658 C120.0653,37.6448 119.1983,38.4968 118.2723,39.1798 C117.3363,39.8678 116.3443,40.4238 115.3483,40.9868 C113.3093,42.0798 111.1373,42.7928 109.0163,43.5918 C107.9643,43.9958 106.8833,44.3798 105.9333,44.9148 C105.4763,45.1638 105.0583,45.5498 104.5903,45.8958 C104.1313,46.2448 103.6413,46.5718 103.1203,46.8488 C102.5993,47.1248 102.0373,47.3398 101.4533,47.4728 C101.1623,47.5398 100.8643,47.5798 100.5663,47.6058 C100.2573,47.6228 99.9413,47.6098 99.6453,47.5568 C98.4533,47.3518 97.3953,46.8488 96.3773,46.3088 C95.8613,46.0408 95.3843,45.7048 94.9063,45.4838 C94.4173,45.2508 93.8943,45.0788 93.3593,44.9388 C92.2873,44.6608 91.1633,44.5138 90.0453,44.3418 C88.9223,44.1818 87.7923,44.0218 86.6683,43.7898 C85.5483,43.5518 84.4123,43.2738 83.3713,42.6928 C82.3733,42.1008 81.4573,41.3688 80.7123,40.4778 C79.9663,39.5898 79.4173,38.5458 79.0843,37.4458 C79.0653,37.3868 79.0993,37.3238 79.1583,37.3058 C79.2173,37.2878 79.2783,37.3198 79.2983,37.3768 C79.6603,38.4398 80.2243,39.4278 80.9703,40.2558 C81.7113,41.0868 82.6203,41.7618 83.5943,42.2928 C84.5613,42.7908 85.6743,43.0268 86.7753,43.2208 C87.8843,43.4118 89.0083,43.5428 90.1353,43.6988 C91.2643,43.8538 92.3953,44.0178 93.5233,44.3098 C94.0863,44.4598 94.6463,44.6448 95.1833,44.9028 C95.4473,45.0268 95.7223,45.1858 95.9553,45.3308 C96.1943,45.4748 96.4363,45.6138 96.6823,45.7488 C97.6593,46.2738 98.6903,46.7548 99.7453,46.9358 C100.0093,46.9838 100.2653,46.9928 100.5213,46.9808 C100.7893,46.9588 101.0563,46.9248 101.3173,46.8638 C101.8423,46.7468 102.3513,46.5558 102.8343,46.3028 C103.3163,46.0478 103.7773,45.7438 104.2233,45.4068 C104.6703,45.0828 105.0923,44.6888 105.6343,44.3888 C106.6733,43.8188 107.7513,43.4558 108.8193,43.0558 C110.9543,42.2768 113.1263,41.5848 115.1083,40.5458 C116.0943,40.0018 117.0943,39.4528 117.9963,38.8028 C118.8963,38.1548 119.7013,37.3598 120.1843,36.3788 C120.6773,35.3938 120.8823,34.2748 121.1263,33.1658 C121.2493,32.6078 121.3693,32.0548 121.5503,31.4948 C121.7513,30.9318 122.1933,30.3958 122.8193,30.2658 C122.8803,30.2528 122.9393,30.2918 122.9523,30.3528 C122.9643,30.4108 122.9263,30.4688 122.8703,30.4848" id="Fill-24" fill="#FEFEFE"></path>
                <path d="M77.7717,30.2538 C78.0207,30.4098 78.2507,30.5988 78.4447,30.8218 C78.6337,31.0498 78.7877,31.3048 78.9087,31.5728 C79.1507,32.1098 79.2617,32.6878 79.3677,33.2448 C79.5577,34.3468 79.9637,35.3998 80.6637,36.2548 C81.3527,37.1148 82.2697,37.7708 83.2257,38.3568 C83.7107,38.6418 84.1897,38.9598 84.6817,39.1388 C85.1927,39.3288 85.7337,39.4758 86.2797,39.6038 C88.4707,40.1098 90.7267,40.4048 92.9757,40.6478 L94.6657,40.8158 C95.2607,40.8638 95.8617,41.0178 96.4057,41.2378 C97.4997,41.6708 98.4597,42.2878 99.5097,42.4688 C100.0327,42.5658 100.5527,42.5398 101.0987,42.4518 C101.6367,42.3678 102.1377,42.2058 102.6097,41.9478 C103.0817,41.6868 103.5517,41.3508 104.0647,41.0678 C104.5747,40.7828 105.1087,40.5348 105.6567,40.3408 C107.8447,39.6198 110.0047,38.9928 112.1427,38.2208 C113.2097,37.8408 114.2667,37.4358 115.2917,36.9698 C116.3247,36.5108 117.2847,35.9598 118.0477,35.1478 C119.5977,33.5358 120.4427,31.3658 121.1747,29.2378 C121.1947,29.1788 121.2577,29.1468 121.3177,29.1668 C121.3757,29.1858 121.4067,29.2478 121.3907,29.3058 C121.0727,30.3998 120.7097,31.4878 120.2237,32.5298 C119.7387,33.5688 119.1417,34.5738 118.3477,35.4318 C117.5687,36.3088 116.5227,36.9228 115.4887,37.3938 C114.4487,37.8818 113.3857,38.3028 112.3167,38.6988 C110.1857,39.4988 107.9837,40.1668 105.8647,40.8958 C105.3437,41.0908 104.8437,41.3258 104.3637,41.5968 C103.8807,41.8648 103.4267,42.1948 102.9057,42.4878 C102.3807,42.7798 101.7867,42.9748 101.2017,43.0678 C100.6267,43.1648 99.9977,43.2018 99.3987,43.0908 C98.1867,42.8778 97.1877,42.2298 96.1697,41.8398 C95.6597,41.6368 95.1467,41.5088 94.6087,41.4658 C94.0397,41.4148 93.4707,41.3638 92.9047,41.2958 C90.6377,41.0268 88.3767,40.7098 86.1417,40.1688 C85.5827,40.0348 85.0287,39.8668 84.4787,39.6498 C83.9057,39.4218 83.4387,39.0888 82.9537,38.7888 C81.9927,38.1678 81.0417,37.4588 80.3247,36.5198 C79.5997,35.5878 79.1887,34.4388 79.0447,33.2978 C78.9647,32.7368 78.8817,32.1828 78.6777,31.6708 C78.4817,31.1568 78.1407,30.7068 77.6787,30.4018 C77.6377,30.3768 77.6257,30.3228 77.6507,30.2818 C77.6757,30.2418 77.7307,30.2298 77.7717,30.2538" id="Fill-26" fill="#FEFEFE"></path>
                <path d="M86.843,59.6757 C87.396,60.8977 88.381,61.8667 89.502,62.5707 C90.068,62.9197 90.665,63.2137 91.289,63.4307 C91.926,63.6587 92.57,63.8587 93.214,64.0487 C95.794,64.7837 98.483,65.1157 101.152,64.8257 C102.481,64.6887 103.811,64.4157 105.084,64.0297 C106.359,63.6317 107.59,63.0787 108.746,62.3977 C111.03,61.0197 113.1,59.1057 114.163,56.6137 L114.164,56.6127 C114.189,56.5557 114.254,56.5297 114.311,56.5527 C114.365,56.5757 114.392,56.6387 114.371,56.6947 C113.895,57.9907 113.124,59.1727 112.192,60.1887 C111.257,61.2067 110.177,62.0857 109.014,62.8307 C107.844,63.5687 106.592,64.1747 105.279,64.6287 C103.956,65.0647 102.605,65.3437 101.227,65.5087 C99.852,65.6687 98.456,65.6857 97.074,65.5547 C95.691,65.4297 94.33,65.1127 93.018,64.6867 C92.364,64.4687 91.719,64.2247 91.085,63.9617 C90.435,63.6967 89.821,63.3517 89.248,62.9517 C88.112,62.1517 87.132,61.0717 86.626,59.7657 C86.603,59.7047 86.633,59.6367 86.694,59.6137 C86.751,59.5907 86.818,59.6187 86.843,59.6757" id="Fill-28" fill="#FEFEFE"></path>
                <path d="M107.841,1.5487 C107.801,1.2447 107.415,1.0047 107.049,0.8557 C106.671,0.7017 106.263,0.5997 105.85,0.5217 C105.023,0.3687 104.175,0.3007 103.327,0.2757 C101.629,0.2237 99.926,0.3447 98.237,0.5537 C96.551,0.7847 94.875,1.1167 93.247,1.5997 C92.435,1.8437 91.631,2.1247 90.871,2.4857 C90.492,2.6677 90.119,2.8667 89.795,3.1177 C89.485,3.3607 89.179,3.7047 89.226,3.9987 C89.28,4.2877 89.664,4.4997 90.03,4.6297 C90.408,4.7627 90.816,4.8457 91.227,4.9037 C92.05,5.0207 92.892,5.0447 93.733,5.0577 C95.415,5.0687 97.108,4.9767 98.787,4.7637 C100.467,4.5637 102.14,4.2667 103.771,3.8247 C104.585,3.6017 105.389,3.3387 106.153,2.9977 C106.533,2.8267 106.904,2.6327 107.234,2.3977 C107.551,2.1687 107.868,1.8527 107.841,1.5487 M108.194,1.5037 C108.226,1.7867 108.106,2.0427 107.964,2.2297 C107.82,2.4227 107.648,2.5747 107.472,2.7147 C107.115,2.9867 106.732,3.2037 106.34,3.3957 C105.557,3.7777 104.742,4.0727 103.918,4.3297 C102.27,4.8407 100.579,5.1887 98.876,5.4407 C97.17,5.6657 95.448,5.8237 93.716,5.7627 C92.851,5.7367 91.984,5.6387 91.126,5.4587 C90.697,5.3657 90.27,5.2477 89.854,5.0667 C89.648,4.9727 89.442,4.8647 89.252,4.7107 C89.067,4.5597 88.885,4.3347 88.848,4.0477 C88.817,3.7547 88.958,3.5097 89.104,3.3297 C89.251,3.1407 89.429,3.0017 89.607,2.8657 C89.969,2.6087 90.352,2.3997 90.745,2.2197 C91.531,1.8567 92.348,1.5817 93.172,1.3427 C94.822,0.8707 96.511,0.5597 98.208,0.3397 C99.904,0.1097 101.616,-0.0193 103.333,0.0027 C104.192,0.0147 105.052,0.0687 105.906,0.2127 C106.333,0.2867 106.759,0.3847 107.175,0.5457 C107.381,0.6297 107.587,0.7267 107.778,0.8697 C107.964,1.0097 108.15,1.2217 108.194,1.5037" id="Fill-30" fill="#FEFEFE"></path>
                <path d="M111.132,2.6254 C111.48,2.7404 111.833,2.8724 112.145,3.1124 C112.451,3.3314 112.742,3.7434 112.68,4.1964 C112.628,4.6384 112.376,4.9784 112.115,5.2514 C111.849,5.5284 111.552,5.7584 111.244,5.9644 C110.006,6.7794 108.648,7.3244 107.281,7.8104 C104.537,8.7614 101.699,9.3914 98.836,9.8214 C97.404,10.0404 95.962,10.1884 94.516,10.2814 C93.07,10.3744 91.615,10.4084 90.161,10.3194 C88.711,10.2234 87.241,10.0904 85.832,9.5524 C85.483,9.4134 85.135,9.2484 84.82,8.9964 C84.662,8.8734 84.516,8.7184 84.402,8.5324 C84.296,8.3414 84.227,8.1134 84.245,7.8894 C84.281,7.4344 84.55,7.1024 84.811,6.8364 C85.081,6.5704 85.389,6.3614 85.701,6.1734 C85.755,6.1414 85.824,6.1584 85.857,6.2114 C85.886,6.2614 85.872,6.3254 85.827,6.3594 C85.547,6.5754 85.28,6.8104 85.057,7.0664 C84.839,7.3224 84.664,7.6254 84.675,7.9024 C84.684,8.1754 84.865,8.4114 85.127,8.5964 C85.385,8.7804 85.702,8.9144 86.027,9.0214 C87.346,9.4254 88.779,9.5504 90.195,9.6074 C93.038,9.6954 95.901,9.4824 98.732,9.0934 C101.562,8.6964 104.38,8.1384 107.099,7.2694 C108.449,6.8254 109.797,6.3144 110.985,5.5704 C111.278,5.3834 111.558,5.1754 111.796,4.9394 C112.035,4.7064 112.236,4.4334 112.276,4.1504 C112.324,3.8724 112.178,3.5914 111.929,3.3734 C111.68,3.1574 111.374,2.9784 111.053,2.8334 C110.996,2.8094 110.97,2.7444 110.994,2.6874 C111.017,2.6344 111.078,2.6084 111.132,2.6254" id="Fill-32" fill="#FEFEFE"></path>
                <path d="M115.7278,6.8554 C115.8828,7.0044 116.0228,7.1844 116.1068,7.4004 C116.1898,7.6144 116.2108,7.8634 116.1588,8.0884 C116.0668,8.5504 115.7758,8.9084 115.4778,9.2094 C114.8638,9.8114 114.1328,10.2304 113.3978,10.6094 C111.9138,11.3524 110.3528,11.8934 108.7778,12.3634 C105.6208,13.2894 102.3808,13.8924 99.1198,14.2654 C97.4888,14.4544 95.8508,14.5864 94.2088,14.6574 C92.5668,14.7264 90.9188,14.7354 89.2758,14.6154 C87.6328,14.4994 85.9818,14.3134 84.3788,13.8354 C83.5888,13.5794 82.7698,13.3054 82.1108,12.6964 C81.7828,12.4064 81.5318,11.9354 81.5868,11.4584 C81.6488,10.9834 81.9398,10.6234 82.2388,10.3344 C82.2838,10.2914 82.3548,10.2934 82.3978,10.3374 C82.4388,10.3794 82.4388,10.4464 82.4018,10.4904 C82.1438,10.7864 81.9348,11.1364 81.9168,11.4874 C81.9088,11.8354 82.0958,12.1544 82.3918,12.3844 C82.9818,12.8494 83.7598,13.1064 84.5268,13.3054 C86.0828,13.6744 87.7008,13.8364 89.3158,13.9194 C92.5518,14.0544 95.8098,13.9334 99.0408,13.5684 C102.2688,13.1964 105.4868,12.6614 108.6218,11.8154 C110.1838,11.3844 111.7338,10.8794 113.1878,10.1874 C113.9058,9.8334 114.6198,9.4414 115.1968,8.9174 C115.4718,8.6524 115.7418,8.3574 115.8288,8.0124 C115.8528,7.9264 115.8678,7.8404 115.8638,7.7534 C115.8748,7.6664 115.8568,7.5784 115.8348,7.4924 C115.7888,7.3204 115.6898,7.1564 115.5648,7.0104 C115.5238,6.9634 115.5298,6.8924 115.5758,6.8524 C115.6198,6.8134 115.6858,6.8164 115.7278,6.8554" id="Fill-34" fill="#FEFEFE"></path>
                <path d="M118.2863,10.3139 C118.6513,10.5889 118.9993,11.0139 119.0093,11.5369 C119.0363,12.0559 118.7753,12.5129 118.4893,12.8809 C118.1943,13.2539 117.8413,13.5619 117.4733,13.8409 C117.1063,14.1229 116.7213,14.3729 116.3243,14.6029 C114.7373,15.5179 113.0403,16.1899 111.3243,16.7819 C107.8843,17.9459 104.3363,18.7509 100.7553,19.3139 C97.1753,19.8779 93.5153,20.1279 89.8813,19.7979 C88.0683,19.6219 86.2513,19.3349 84.5133,18.7369 C83.6473,18.4369 82.7873,18.0889 82.0093,17.5789 C81.6223,17.3229 81.2503,17.0339 80.9353,16.6809 C80.6223,16.3319 80.3693,15.8949 80.3133,15.4109 C80.3073,15.3509 80.3493,15.2959 80.4103,15.2889 C80.4663,15.2829 80.5163,15.3199 80.5293,15.3729 L80.5313,15.3799 C80.7263,16.2159 81.4833,16.7929 82.2293,17.2159 C82.9953,17.6439 83.8293,17.9589 84.6803,18.2059 C86.3893,18.6889 88.1603,18.9659 89.9403,19.0989 C93.5063,19.3699 97.0993,19.1339 100.6483,18.6079 C104.1993,18.0749 107.7323,17.3539 111.1523,16.2629 C112.8553,15.7099 114.5433,15.0749 116.1013,14.2129 C116.8703,13.7789 117.6353,13.2919 118.1983,12.6429 C118.4743,12.3219 118.7043,11.9429 118.6973,11.5439 C118.7223,11.1439 118.4733,10.7639 118.1493,10.4809 C118.1043,10.4409 118.1003,10.3729 118.1403,10.3279 C118.1773,10.2859 118.2423,10.2799 118.2863,10.3139" id="Fill-36" fill="#FEFEFE"></path>
                <path d="M77.1555,33.932 C76.9905,34.639 76.8455,35.355 76.8385,36.07 C76.8135,36.788 77.0295,37.476 77.3925,38.096 C78.1515,39.327 79.0225,40.505 79.9035,41.669 C80.3415,42.258 80.7585,42.872 81.0995,43.532 C81.4535,44.194 81.6765,44.89 82.0145,45.524 C82.3425,46.168 82.7145,46.792 83.0975,47.41 L83.6785,48.339 C83.8785,48.649 84.0545,48.968 84.2715,49.234 C85.1795,50.319 86.3205,51.272 87.5035,52.059 C88.7135,52.848 90.0105,53.464 91.3625,53.963 C92.0385,54.214 92.7285,54.432 93.4225,54.65 L95.5095,55.306 C96.8935,55.728 98.2945,56.043 99.7175,56.075 C101.1395,56.107 102.5655,55.894 103.9175,55.444 C105.2695,54.992 106.5415,54.309 107.7445,53.515 C108.9555,52.726 110.1045,51.83 111.2965,50.971 C111.8895,50.542 112.5065,50.123 113.1305,49.738 C113.7445,49.358 114.3345,48.939 114.9065,48.501 C116.0495,47.622 117.0975,46.618 117.9865,45.488 C118.4305,44.924 118.8305,44.326 119.1695,43.696 C119.4985,43.037 119.9355,42.408 120.3865,41.831 C120.8395,41.242 121.3395,40.711 121.7475,40.127 C122.1595,39.542 122.5215,38.92 122.7775,38.254 C123.2985,36.927 123.3845,35.44 123.0075,34.046 C122.9915,33.989 123.0245,33.93 123.0825,33.914 C123.1385,33.898 123.1965,33.931 123.2145,33.986 C123.4375,34.692 123.5615,35.438 123.5435,36.186 C123.5235,36.935 123.3735,37.679 123.1205,38.383 C122.8695,39.089 122.5065,39.748 122.0925,40.366 C121.6785,40.994 121.1785,41.536 120.7485,42.11 C120.3065,42.689 119.9125,43.269 119.5935,43.922 C119.2445,44.582 118.8345,45.206 118.3795,45.793 C117.4685,46.969 116.3975,48.009 115.2315,48.919 C114.6485,49.373 114.0485,49.807 113.4225,50.2 C112.8065,50.589 112.2205,51.002 111.6355,51.435 C110.4685,52.302 109.3245,53.222 108.0955,54.045 C106.8675,54.864 105.5465,55.585 104.1265,56.066 C102.7065,56.546 101.2025,56.78 99.7025,56.751 C98.1975,56.723 96.7185,56.392 95.3115,55.968 C93.9065,55.533 92.5135,55.126 91.1235,54.597 C89.7355,54.078 88.4085,53.366 87.1955,52.519 C86.5785,52.091 86.0185,51.608 85.4715,51.11 C84.9275,50.609 84.4015,50.088 83.9425,49.487 C83.7085,49.179 83.5365,48.851 83.3425,48.546 L82.7735,47.608 C82.3945,46.981 82.0255,46.344 81.6995,45.681 C81.3575,45.019 81.1385,44.312 80.8105,43.68 C80.4875,43.037 80.0895,42.433 79.6625,41.845 C78.7975,40.667 77.9395,39.482 77.1805,38.216 C76.8065,37.577 76.5735,36.819 76.6045,36.068 C76.6175,35.319 76.7685,34.594 76.9375,33.88 C76.9515,33.82 77.0115,33.783 77.0725,33.797 C77.1325,33.811 77.1695,33.872 77.1555,33.932" id="Fill-38" fill="#FEFEFE"></path>
                <path d="M124.1291,39.3607 C124.1361,40.0487 123.8741,40.7027 123.5691,41.2847 C123.2661,41.8737 122.9101,42.4207 122.6581,43.0007 C122.4051,43.5717 122.2481,44.2087 122.0491,44.8347 C121.9501,45.1487 121.8481,45.4637 121.7091,45.7777 C121.6401,45.9337 121.5611,46.0897 121.4521,46.2427 C121.3471,46.3857 121.1861,46.5687 120.9211,46.6037 C120.6781,46.6377 120.4571,46.5127 120.3191,46.4017 L120.1311,46.2447 C120.1071,46.2257 120.0811,46.2107 120.0841,46.2127 C120.0801,46.2227 120.1621,46.2147 120.1741,46.1937 C120.1711,46.1817 120.0991,46.3967 120.0581,46.5427 L119.9061,47.0127 C119.6961,47.6367 119.4671,48.2527 119.2071,48.8607 C118.6951,50.0837 117.9601,51.2297 117.0071,52.1707 C116.0521,53.1107 114.9831,53.8617 113.9851,54.6957 C112.9701,55.5177 111.9431,56.3337 110.8831,57.1077 C109.8311,57.8787 108.7691,58.6557 107.6311,59.3357 C106.4941,60.0137 105.2751,60.5847 103.9841,60.9477 C102.6921,61.3027 101.3731,61.4927 100.0471,61.5557 C98.7211,61.6197 97.3891,61.5637 96.0671,61.3427 C95.4111,61.2287 94.7351,61.0707 94.1081,60.8077 C93.4861,60.5507 92.8941,60.2537 92.3111,59.9417 C91.1461,59.3177 90.0331,58.6137 88.9661,57.8197 C88.4251,57.4097 87.9561,56.9517 87.4751,56.5097 L86.0501,55.1587 C85.1161,54.2467 84.1461,53.3657 83.2621,52.3867 C82.3721,51.4187 81.5861,50.3107 81.0821,49.0767 C80.8251,48.4577 80.6351,47.8327 80.4531,47.1937 L79.9831,45.2907 L79.9921,45.3177 C79.9781,45.2837 79.9631,45.2477 79.9501,45.2287 C79.9461,45.2187 79.9371,45.2107 79.9491,45.2227 C79.9451,45.2307 80.0361,45.2747 80.0981,45.2437 C80.1631,45.2047 80.1141,45.2337 80.1031,45.2627 L80.0351,45.3697 C79.9391,45.5227 79.7881,45.7047 79.5651,45.7837 C79.3391,45.8527 79.1281,45.8547 78.9011,45.7277 C78.7031,45.5997 78.6001,45.4317 78.5051,45.2737 C78.1571,44.6317 78.0011,43.9647 77.7431,43.3507 C77.6801,43.1997 77.6121,43.0507 77.5311,42.9227 C77.4361,42.7787 77.3511,42.6187 77.2721,42.4627 C77.1161,42.1467 76.9881,41.8227 76.8761,41.4937 C76.6571,40.8357 76.5101,40.1597 76.4151,39.4797 C76.4061,39.4177 76.4491,39.3607 76.5111,39.3517 C76.5681,39.3437 76.6231,39.3817 76.6361,39.4377 C76.7921,40.0967 76.9771,40.7477 77.2121,41.3757 C77.3281,41.6897 77.4581,41.9967 77.6111,42.2897 C77.6901,42.4357 77.7701,42.5747 77.8611,42.7147 C77.9621,42.8757 78.0351,43.0387 78.1041,43.2017 C78.3711,43.8447 78.5381,44.5197 78.8441,45.0787 C78.9211,45.2117 79.0141,45.3377 79.1071,45.3937 C79.1731,45.4417 79.3381,45.4517 79.4311,45.4147 C79.5341,45.3797 79.6211,45.2887 79.7051,45.1557 L79.7751,45.0477 C79.8111,45.0077 79.8071,44.9597 79.9491,44.8797 C79.9991,44.8607 80.0561,44.8557 80.1131,44.8727 C80.1571,44.8867 80.1981,44.9157 80.2141,44.9317 C80.2581,44.9727 80.2721,45.0007 80.2881,45.0277 C80.3201,45.0817 80.3381,45.1247 80.3571,45.1697 L80.3611,45.1807 L80.3651,45.1967 L80.8351,47.0937 C81.0101,47.7097 81.2031,48.3357 81.4491,48.9217 C81.9401,50.1097 82.6901,51.1607 83.5661,52.1107 C84.4361,53.0677 85.3941,53.9497 86.3611,54.8257 C87.3211,55.6937 88.3101,56.5827 89.3241,57.3317 C90.3761,58.0637 91.5111,58.7027 92.6471,59.3067 C93.2181,59.6037 93.7991,59.8837 94.3861,60.1167 C94.9641,60.3607 95.5661,60.5087 96.1931,60.6237 C97.4441,60.8457 98.7351,60.9137 100.0161,60.8617 C101.2971,60.8147 102.5781,60.6407 103.8071,60.3137 C106.2791,59.6497 108.4341,58.1547 110.5481,56.6427 C111.6081,55.8927 112.6361,55.0967 113.6601,54.2897 C114.6761,53.4657 115.7591,52.7207 116.6791,51.8367 C117.5951,50.9537 118.3191,49.8717 118.8221,48.6937 C119.0761,48.1017 119.3031,47.4927 119.5091,46.8797 L119.6571,46.4187 L119.7291,46.1837 C119.7671,46.0917 119.7721,46.0027 119.9081,45.8707 C119.9831,45.7947 120.1561,45.7797 120.2291,45.8197 C120.3091,45.8507 120.3501,45.8847 120.3891,45.9147 L120.5771,46.0707 C120.6911,46.1597 120.7841,46.1997 120.8721,46.1877 C121.0201,46.1867 121.2161,45.8787 121.3311,45.6087 C121.4581,45.3237 121.5601,45.0187 121.6581,44.7117 C121.8581,44.0957 122.0121,43.4577 122.2941,42.8357 C122.8571,41.6237 123.7981,40.6317 123.8991,39.3537 C123.9021,39.2907 123.9581,39.2417 124.0221,39.2467 C124.0811,39.2507 124.1281,39.3017 124.1291,39.3607" id="Fill-40" fill="#FEFEFE"></path>
                <path d="M1.4607,42.7113 L4.0347,42.7113 C5.2247,42.7113 6.1727,42.0793 6.1727,40.8293 C6.1727,39.7453 5.4197,38.9473 4.0957,38.9473 L1.4607,38.9473 L1.4607,42.7113 Z M1.4607,37.6523 L3.5677,37.6523 C4.0807,37.6523 5.8267,37.6523 5.8267,35.9363 C5.8267,34.2943 4.4567,34.2943 3.6287,34.2943 L1.4607,34.2943 L1.4607,37.6523 Z M0.0007,33.0603 L3.8847,33.0603 C5.2097,33.0603 5.9467,33.1953 6.6247,33.8583 C7.0917,34.3103 7.3927,34.9423 7.3927,35.8003 C7.3927,37.5923 6.0827,38.0593 5.5557,38.2543 C6.1887,38.4353 7.7237,38.8873 7.7237,40.9643 C7.7237,42.4403 6.7747,43.1933 6.4137,43.4343 C5.6617,43.9313 4.8177,43.9313 3.9597,43.9313 L0.0007,43.9313 L0.0007,33.0603 Z" id="Fill-42" fill="#FEFEFE"></path>
                <path d="M10.0124,37.7431 L12.3914,37.7431 C12.5574,37.7431 13.4154,37.7431 13.8224,37.5021 C14.0324,37.3821 14.5594,36.9901 14.5594,36.0871 C14.5594,34.3251 12.9934,34.3251 12.3914,34.3251 L10.0124,34.3251 L10.0124,37.7431 Z M8.5524,33.0601 L12.4364,33.0601 C12.9934,33.0601 14.1374,33.0601 14.9364,33.5721 C15.7494,34.0841 16.1404,34.9121 16.1404,35.7851 C16.1404,36.5541 15.8544,37.2311 15.3724,37.7131 C14.9064,38.1801 14.4244,38.3301 14.0934,38.4201 C15.1314,38.6911 15.5984,39.1581 15.7494,40.5131 C15.8994,41.7931 16.0054,42.7261 16.4264,43.9311 L14.8154,43.9311 C14.5744,43.2081 14.4244,41.8831 14.3184,41.0551 C14.1374,39.4741 13.7614,39.0231 11.9394,39.0231 L10.0424,39.0231 L10.0424,43.9311 L8.5524,43.9311 L8.5524,33.0601 Z" id="Fill-44" fill="#FEFEFE"></path>
                <mask id="mask-4" fill="white">
                    <use xlink:href="#path-3"></use>
                </mask>
                <g id="Clip-47"></g>
                <polygon id="Fill-46" fill="#FEFEFE" mask="url(#mask-4)" points="17.361 43.9316 18.866 43.9316 18.866 33.0606 17.361 33.0606"></polygon>
                <polygon id="Fill-48" fill="#FEFEFE" mask="url(#mask-4)" points="20.2361 33.0604 21.7271 33.0604 21.7271 42.5914 26.7851 42.5914 26.7851 43.9314 20.2361 43.9314"></polygon>
                <polygon id="Fill-49" fill="#FEFEFE" mask="url(#mask-4)" points="27.5388 33.0604 29.0298 33.0604 29.0298 42.5914 34.0878 42.5914 34.0878 43.9314 27.5388 43.9314"></polygon>
                <polygon id="Fill-50" fill="#FEFEFE" mask="url(#mask-4)" points="34.811 43.9316 36.316 43.9316 36.316 33.0606 34.811 33.0606"></polygon>
                <path d="M40.1711,39.8807 L44.2811,39.8807 L42.2791,34.5507 L40.1711,39.8807 Z M41.5421,33.0607 L43.1521,33.0607 L47.5491,43.9307 L45.9081,43.9307 L44.7331,41.1007 L39.6901,41.1007 L38.5151,43.9307 L36.9641,43.9307 L41.5421,33.0607 Z" id="Fill-51" fill="#FEFEFE" mask="url(#mask-4)"></path>
                <polygon id="Fill-52" fill="#FEFEFE" mask="url(#mask-4)" points="48.2717 33.0604 50.3647 33.0604 55.7097 42.0494 55.7097 33.0604 57.0947 33.0604 57.0947 43.9314 55.1677 43.9314 49.6417 34.7014 49.6417 43.9314 48.2717 43.9314"></polygon>
                <polygon id="Fill-53" fill="#FEFEFE" mask="url(#mask-4)" points="61.4011 43.931 61.4011 34.34 57.7571 34.34 57.7571 33.06 66.5351 33.06 66.5351 34.34 62.8921 34.34 62.8921 43.931"></polygon>
                <polygon id="Fill-54" fill="#FEFEFE" mask="url(#mask-4)" points="11.0969 46.3602 13.7619 46.3602 16.8329 55.3192 19.9799 46.3602 22.4649 46.3602 22.4649 57.2312 20.9889 57.2312 20.9889 47.4442 17.4209 57.2312 15.9899 57.2312 12.5569 47.5052 12.5569 57.2312 11.0969 57.2312"></polygon>
                <polygon id="Fill-55" fill="#FEFEFE" mask="url(#mask-4)" points="23.82 57.2316 25.326 57.2316 25.326 46.3606 23.82 46.3606"></polygon>
                <polygon id="Fill-56" fill="#FEFEFE" mask="url(#mask-4)" points="26.7107 46.3602 28.8037 46.3602 34.1487 55.3492 34.1487 46.3602 35.5337 46.3602 35.5337 57.2312 33.6067 57.2312 28.0807 48.0022 28.0807 57.2312 26.7107 57.2312"></polygon>
                <path d="M38.4699,55.997 L39.9459,55.997 C40.9839,55.997 42.0689,55.936 42.7909,55.394 C44.1759,54.355 44.2209,52.579 44.2209,51.946 C44.2209,51.54 44.1909,49.688 43.1679,48.559 C42.4749,47.791 41.6019,47.61 40.2769,47.61 L38.4699,47.61 L38.4699,55.997 Z M36.9639,46.36 L40.1109,46.36 C41.5719,46.36 43.2879,46.36 44.4919,47.776 C45.4559,48.905 45.8319,50.395 45.8319,51.887 C45.8319,54.235 44.8539,55.681 44.0259,56.343 C42.9569,57.231 41.6169,57.231 40.0209,57.231 L36.9639,57.231 L36.9639,46.36 Z" id="Fill-57" fill="#FEFEFE" mask="url(#mask-4)"></path>
                <path d="M47.8503,54.0546 C47.8803,54.8076 47.9703,56.2076 50.4703,56.2076 C52.7283,56.2076 53.0143,54.8076 53.0143,54.2656 C53.0143,53.0456 52.0363,52.8046 50.5153,52.4286 C48.8593,52.0216 48.1213,51.8406 47.5643,51.4646 C46.6753,50.8626 46.4343,50.0496 46.4343,49.3266 C46.4343,47.1136 48.5273,46.1506 50.5753,46.1506 C51.2983,46.1506 52.7583,46.2706 53.6313,47.2186 C54.2343,47.8816 54.2643,48.6186 54.2943,49.0716 L52.7283,49.0716 C52.6533,47.7156 51.5093,47.4146 50.4393,47.4146 C48.9343,47.4146 48.0303,48.0916 48.0303,49.1756 C48.0303,50.1396 48.6633,50.4706 49.9883,50.7866 C52.5783,51.4506 52.8643,51.5096 53.4963,51.9316 C54.5053,52.5936 54.5803,53.6486 54.5803,54.0996 C54.5803,56.0266 53.0743,57.4876 50.2893,57.4876 C49.4613,57.4876 47.7743,57.3516 46.9163,56.2526 C46.2993,55.4546 46.2843,54.5806 46.2843,54.0546 L47.8503,54.0546 Z" id="Fill-58" fill="#FEFEFE" mask="url(#mask-4)"></path>
            </g>
        </g>
    </g>
</svg>