<?xml version="1.0" encoding="UTF-8"?>
<svg width="71px" height="91px" viewBox="0 0 71 91" version="1.1" xmlns="http://www.w3.org/2000/svg" xmlns:xlink="http://www.w3.org/1999/xlink">
    <!-- Generator: Sketch 54.1 (76490) - https://sketchapp.com -->
    <title>Group 43</title>
    <desc>Created with Sketch.</desc>
    <defs>
        <polygon id="path-1" points="0 0.545158454 53.2678185 0.545158454 53.2678185 16.2591 0 16.2591"></polygon>
        <polygon id="path-3" points="0.00976669028 0.85762486 35.7756437 0.85762486 35.7756437 19 0.00976669028 19"></polygon>
    </defs>
    <g id="BM-Website-1.0" stroke="none" stroke-width="1" fill="none" fill-rule="evenodd">
        <g id="BM---Mobile-Menu---Closed" transform="translate(-28.000000, -28.000000)">
            <g id="Group-43" transform="translate(28.000000, 28.000000)">
                <path d="M19.4362,63.3557 L19.2482,63.8907 C19.2122,64.0747 19.1942,64.2607 19.1662,64.4437 C19.1872,64.6277 19.1822,64.8147 19.2212,64.9947 C19.2842,65.1687 19.3002,65.3567 19.3982,65.5177 C19.7102,66.1937 20.2672,66.7397 20.8732,67.1927 C22.1092,68.0907 23.5602,68.6867 25.0212,69.1657 C26.4852,69.6437 27.9862,70.0097 29.5142,70.2167 C31.0402,70.4187 32.5922,70.4607 34.1292,70.3247 C37.2002,70.0497 40.2272,69.1027 42.8572,67.4647 C44.1782,66.6587 45.4162,65.6927 46.4222,64.5207 C47.4222,63.3557 48.1642,61.9247 48.2812,60.3807 C48.2852,60.3187 48.3392,60.2717 48.4022,60.2767 C48.4632,60.2817 48.5102,60.3347 48.5062,60.3967 C48.4142,62.0017 47.6672,63.5027 46.6602,64.7187 C45.6452,65.9437 44.4112,66.9627 43.0832,67.8187 C40.4362,69.5567 37.3492,70.6237 34.1872,70.9427 C32.6072,71.1077 31.0082,71.0887 29.4282,70.9047 C27.8492,70.7227 26.2842,70.3667 24.7972,69.7997 C23.3132,69.2437 21.8662,68.5357 20.6112,67.5277 C19.9952,67.0207 19.4182,66.4107 19.1042,65.6417 C19.0082,65.4597 18.9922,65.2447 18.9342,65.0467 C18.9002,64.8447 18.9132,64.6337 18.9022,64.4297 C18.9392,64.2277 18.9702,64.0237 19.0192,63.8267 L19.2472,63.2637 C19.2692,63.2097 19.3302,63.1837 19.3832,63.2057 C19.4352,63.2267 19.4612,63.2857 19.4422,63.3367 L19.4362,63.3557 Z" id="Fill-1" fill="#FEFEFE"></path>
                <path d="M17.7179,67.0852 C17.3659,67.5242 16.9559,67.9252 16.4899,68.2502 C16.0279,68.5812 15.5149,68.8292 15.0299,69.0822 C14.5449,69.3322 14.1049,69.6352 13.8359,70.0772 C13.5619,70.5142 13.4299,71.0232 13.5319,71.5082 C13.6239,71.9952 13.9039,72.4412 14.2609,72.8142 C14.6139,73.1902 15.0499,73.4972 15.5089,73.7392 C16.4769,74.2252 17.4859,74.6482 18.5209,74.9852 C20.5899,75.6782 22.7609,76.0582 24.9479,76.2462 C27.1419,76.4252 29.3509,76.4882 31.5469,76.3732 C33.7399,76.2492 35.9299,75.9762 38.0529,75.4202 C40.1679,74.8602 42.2489,74.0702 44.0929,72.9032 C45.9369,71.7312 47.5349,70.1752 48.8269,68.4062 C49.4649,67.5272 49.9339,66.5232 50.0659,65.4482 C50.1329,64.9132 50.1259,64.3682 50.0529,63.8302 C49.9739,63.2912 49.8299,62.7632 49.6499,62.2452 C49.6289,62.1892 49.6579,62.1272 49.7139,62.1062 C49.7679,62.0862 49.8289,62.1152 49.8519,62.1682 C50.2589,63.2082 50.5099,64.3462 50.3759,65.4842 C50.2599,66.6222 49.7799,67.6992 49.1369,68.6232 C47.8529,70.4602 46.2459,72.0812 44.3599,73.3152 C40.5459,75.7472 36.0289,76.7762 31.5839,77.0452 C29.3499,77.1742 27.1159,77.1222 24.8889,76.9522 C22.6609,76.7722 20.4289,76.3992 18.2859,75.6892 C17.2219,75.3142 16.1769,74.8802 15.1949,74.3092 C14.6899,74.0082 14.2209,73.6462 13.8399,73.1902 C13.4559,72.7442 13.1469,72.1982 13.0629,71.5832 C12.9679,70.9682 13.1759,70.3382 13.5169,69.8612 C13.8639,69.3672 14.3819,69.0362 14.8839,68.7962 C15.3879,68.5512 15.8839,68.3262 16.3339,68.0232 C16.7859,67.7262 17.1879,67.3552 17.5409,66.9392 C17.5819,66.8912 17.6539,66.8852 17.7019,66.9262 C17.7499,66.9662 17.7569,67.0362 17.7179,67.0852" id="Fill-3" fill="#FEFEFE"></path>
                <g id="Group-7" transform="translate(0.000000, 65.708600)">
                    <mask id="mask-2" fill="white">
                        <use xlink:href="#path-1"></use>
                    </mask>
                    <g id="Clip-6"></g>
                    <path d="M11.526,4.9361 C8.624,6.1211 5.652,7.1341 2.889,8.5701 C2.546,8.7501 2.203,8.9321 1.871,9.1271 C1.529,9.3171 1.252,9.5151 1.031,9.7801 C0.571,10.2941 0.547,11.0151 0.921,11.5701 C1.262,12.1351 1.938,12.5081 2.615,12.8291 C3.303,13.1411 4.026,13.4071 4.764,13.6331 C6.239,14.0881 7.758,14.4321 9.286,14.7121 C10.808,14.9881 12.355,15.1461 13.909,15.2661 C17.018,15.4991 20.144,15.5881 23.267,15.6011 C26.393,15.6141 29.511,15.5641 32.605,15.1871 C35.695,14.8271 38.766,14.2101 41.688,13.1481 C44.597,12.0811 47.365,10.5441 49.639,8.4361 C50.755,7.3701 51.787,6.1751 52.47,4.7971 C52.796,4.1101 53.038,3.3611 52.98,2.6141 C52.935,1.8631 52.497,1.1891 51.879,0.7491 C51.828,0.7131 51.816,0.6421 51.852,0.5911 C51.888,0.5411 51.959,0.5311 52.009,0.5651 C52.675,1.0131 53.188,1.7591 53.253,2.5881 C53.332,3.4121 53.085,4.2111 52.753,4.9321 C52.059,6.3751 51.022,7.6021 49.897,8.7061 C47.601,10.8911 44.803,12.4861 41.855,13.5971 C38.897,14.7061 35.793,15.3591 32.674,15.7541 C29.553,16.1621 26.399,16.2551 23.266,16.2591 C20.13,16.2591 16.993,16.1811 13.858,15.9581 C12.291,15.8451 10.718,15.6911 9.159,15.4151 C7.607,15.1351 6.067,14.7931 4.548,14.3321 C3.791,14.0961 3.035,13.8381 2.304,13.4891 C1.939,13.3141 1.578,13.1201 1.234,12.8751 C0.89,12.6401 0.554,12.3191 0.324,11.9331 C0.09,11.5501 -0.034,11.0751 0.008,10.6081 C0.053,10.1401 0.268,9.7041 0.57,9.3791 C0.862,9.0501 1.25,8.8091 1.599,8.6361 C1.95,8.4501 2.307,8.2811 2.664,8.1111 C5.537,6.8061 8.521,5.8331 11.445,4.7371 L11.448,4.7361 C11.503,4.7151 11.565,4.7441 11.586,4.7991 C11.607,4.8541 11.579,4.9151 11.526,4.9361" id="Fill-5" fill="#FEFEFE" mask="url(#mask-2)"></path>
                </g>
                <path d="M2.5861,81.5666 C7.5211,83.7746 12.8651,84.9866 18.2431,85.3906 C20.9351,85.6026 23.6371,85.6186 26.3361,85.5126 C29.0341,85.4116 31.7271,85.1896 34.3961,84.8116 C37.0651,84.4386 39.7081,83.8876 42.2841,83.1226 C43.5671,82.7256 44.8361,82.2836 46.0721,81.7666 C47.3101,81.2386 48.5391,80.6856 49.7371,80.0816 C50.9341,79.4766 52.1101,78.8316 53.2171,78.0916 C54.3091,77.3426 55.3721,76.5106 56.1231,75.4406 C56.8571,74.3846 57.3591,73.0456 56.8101,71.8236 C56.3211,70.6076 55.4121,69.5616 54.4191,68.6736 C54.3731,68.6346 54.3671,68.5646 54.4071,68.5186 C54.4461,68.4726 54.5161,68.4686 54.5621,68.5046 C55.6051,69.3786 56.5701,70.3996 57.1441,71.6886 C57.4201,72.3236 57.5561,73.0896 57.3691,73.7896 C57.2241,74.4816 56.9291,75.1376 56.5481,75.7266 C55.7781,76.9116 54.7061,77.8286 53.5981,78.6376 C52.4821,79.4456 51.2871,80.1226 50.0701,80.7426 C47.6331,81.9626 45.1021,83.0046 42.4771,83.7726 C39.8531,84.5256 37.1751,85.0576 34.4781,85.4096 C31.7811,85.7716 29.0651,85.9506 26.3511,86.0146 C23.6391,86.0826 20.9161,86.0266 18.2111,85.7736 C12.8081,85.2676 7.4371,84.0436 2.4901,81.7776 C2.4321,81.7516 2.4071,81.6826 2.4331,81.6246 C2.4601,81.5666 2.5281,81.5406 2.5861,81.5666" id="Fill-8" fill="#FEFEFE"></path>
                <path d="M11.8288,87.2756 C14.4868,87.8346 17.1798,88.2286 19.8818,88.4906 C22.5828,88.7466 25.3028,88.8676 28.0058,88.7196 C33.4238,88.3886 38.8218,87.6456 44.1218,86.4856 C46.7728,85.9056 49.3958,85.2096 51.9858,84.4056 C54.5598,83.6016 57.0678,82.5506 59.3158,81.0906 C60.4338,80.3606 61.4918,79.5306 62.3878,78.5606 C62.8358,78.0786 63.2518,77.5656 63.5758,77.0106 C63.9088,76.4596 64.1458,75.8796 64.0928,75.2836 C64.0548,74.6886 63.7448,74.1196 63.3148,73.6426 C62.8848,73.1646 62.3528,72.7566 61.7888,72.4026 C60.6558,71.6886 59.3998,71.1636 58.1408,70.6536 C58.0818,70.6296 58.0528,70.5616 58.0768,70.5036 C58.0998,70.4456 58.1648,70.4176 58.2228,70.4376 C59.5058,70.8866 60.7998,71.3536 62.0088,72.0346 C62.6118,72.3746 63.1958,72.7706 63.7028,73.2796 C64.2038,73.7826 64.6318,74.4476 64.7228,75.2206 C64.8268,75.9976 64.5428,76.7546 64.2028,77.3696 C63.8478,77.9956 63.4118,78.5546 62.9358,79.0696 C61.9748,80.0926 60.8668,80.9466 59.7038,81.6936 C57.3698,83.1826 54.7988,84.2326 52.1788,85.0296 C49.5658,85.8276 46.9148,86.4946 44.2448,87.0556 C38.9008,88.1716 33.4758,88.8696 28.0268,89.1476 C25.2918,89.2626 22.5588,89.1066 19.8488,88.8156 C17.1378,88.5196 14.4418,88.0896 11.7808,87.4966 C11.7198,87.4826 11.6818,87.4216 11.6948,87.3616 C11.7078,87.3006 11.7688,87.2626 11.8288,87.2756" id="Fill-10" fill="#FEFEFE"></path>
                <g id="Group-14" transform="translate(35.000000, 71.708600)">
                    <mask id="mask-4" fill="white">
                        <use xlink:href="#path-3"></use>
                    </mask>
                    <g id="Clip-13"></g>
                    <path d="M0.1169,18.7721 C4.0459,18.5261 7.9569,18.0281 11.8079,17.2571 C13.7309,16.8671 15.6309,16.3681 17.5179,15.8141 C19.4029,15.2601 21.2719,14.6511 23.1169,13.9791 C24.9609,13.3071 26.7849,12.5751 28.5489,11.7321 C30.3169,10.8941 31.9879,9.9101 33.3879,8.5841 C34.0809,7.9321 34.7279,7.2001 35.0749,6.3501 C35.2469,5.9271 35.3209,5.4741 35.2529,5.0371 C35.1869,4.6011 34.9629,4.1851 34.6689,3.8191 C34.0829,3.0841 33.2479,2.5551 32.3749,2.1381 C31.4949,1.7201 30.5649,1.4051 29.6329,1.0821 C29.5729,1.0611 29.5399,0.9961 29.5609,0.9351 C29.5819,0.8761 29.6459,0.8441 29.7049,0.8631 C30.6439,1.1551 31.5939,1.4431 32.5099,1.8421 C33.4189,2.2441 34.3169,2.7621 34.9929,3.5541 C35.3239,3.9451 35.6079,4.4111 35.7219,4.9501 C35.8329,5.4841 35.7639,6.0431 35.5889,6.5401 C35.2319,7.5421 34.5659,8.3521 33.8589,9.0711 C33.1369,9.7831 32.3459,10.4071 31.4869,10.9431 C30.6279,11.4741 29.7369,11.9191 28.8369,12.3411 C27.0339,13.1771 25.1869,13.8931 23.3209,14.5471 C21.4539,15.2021 19.5669,15.7931 17.6649,16.3271 C15.7629,16.8601 13.8419,17.3401 11.8979,17.7131 C8.0139,18.4681 4.0689,18.8321 0.1289,19.0001 C0.0659,19.0021 0.0129,18.9541 0.0099,18.8911 C0.0069,18.8291 0.0549,18.7761 0.1169,18.7721" id="Fill-12" fill="#FEFEFE" mask="url(#mask-4)"></path>
                </g>
                <path d="M13.2218,18.2365 C13.2028,18.7075 13.2888,19.1705 13.4828,19.5845 C13.6768,19.9995 13.9748,20.3555 14.3068,20.6755 C14.9798,21.3135 15.8338,21.7665 16.6888,22.1545 C17.5228,22.5095 18.4868,22.6945 19.4258,22.8565 C20.3728,23.0145 21.3328,23.1215 22.2938,23.2065 C26.1408,23.5065 30.0338,23.4935 33.8578,22.9835 C37.6938,22.4625 41.5068,21.7045 45.1828,20.5235 C47.0098,19.9165 48.8148,19.1905 50.4178,18.1455 C51.2078,17.6195 51.9718,17.0145 52.5188,16.2595 C53.0708,15.5125 53.3268,14.5465 53.0958,13.6265 C53.0808,13.5675 53.1168,13.5075 53.1758,13.4925 C53.2328,13.4775 53.2908,13.5105 53.3078,13.5665 C53.4568,14.0465 53.5048,14.5675 53.4118,15.0715 C53.3218,15.5755 53.1118,16.0515 52.8348,16.4745 C52.2578,17.3145 51.4928,17.9695 50.6798,18.5325 C49.0418,19.6515 47.2188,20.4285 45.3758,21.0895 C41.6768,22.4025 37.8178,23.1415 33.9558,23.6985 C32.0108,23.9645 30.0538,24.0935 28.0968,24.1295 C26.1388,24.1675 24.1808,24.0955 22.2298,23.9105 C21.2548,23.8135 20.2818,23.6955 19.3118,23.5235 C18.3418,23.3425 17.3768,23.1595 16.4198,22.7435 C15.5238,22.3005 14.6658,21.7625 13.9578,21.0215 C13.6068,20.6525 13.3158,20.2125 13.1388,19.7255 C12.9598,19.2395 12.9158,18.7095 13.0018,18.2125 C13.0128,18.1525 13.0698,18.1125 13.1298,18.1225 C13.1848,18.1325 13.2238,18.1815 13.2218,18.2365" id="Fill-15" fill="#FEFEFE"></path>
                <path d="M12.9592,21.4973 C12.8742,22.5033 13.2092,23.4963 13.7962,24.2983 C14.3842,25.1013 15.1692,25.7613 16.0442,26.2293 C16.9322,26.6963 17.8972,27.0203 18.8812,27.2563 C19.8662,27.4963 20.8752,27.6463 21.8912,27.7443 C25.9722,28.0443 30.1122,28.0203 34.1952,27.5903 C38.2792,27.1523 42.3312,26.3413 46.2302,25.0343 C48.1692,24.3793 50.0722,23.5603 51.6782,22.3063 C52.0822,21.9973 52.4562,21.6523 52.8092,21.2883 C53.1702,20.9253 53.4712,20.5353 53.7142,20.0913 C54.1882,19.2203 54.5082,18.1923 54.2942,17.2153 L54.2932,17.2113 C54.2792,17.1493 54.3192,17.0873 54.3812,17.0733 C54.4422,17.0603 54.5032,17.0993 54.5182,17.1583 C54.7842,18.2193 54.4852,19.3163 54.0012,20.2473 C53.7602,20.7163 53.4322,21.1583 53.0712,21.5343 C52.7142,21.9193 52.3342,22.2853 51.9242,22.6133 C50.2922,23.9503 48.3502,24.8193 46.3992,25.5193 C42.4812,26.9023 38.4012,27.8303 34.2692,28.2733 C30.1362,28.7163 25.9732,28.8273 21.8212,28.4213 C19.7512,28.1943 17.6452,27.7503 15.7872,26.6933 C14.8622,26.1543 14.0422,25.4293 13.4602,24.5253 C12.8762,23.6353 12.5612,22.5283 12.7342,21.4703 C12.7442,21.4083 12.8022,21.3653 12.8642,21.3753 C12.9222,21.3853 12.9632,21.4383 12.9592,21.4973" id="Fill-17" fill="#FEFEFE"></path>
                <path d="M12.8342,25.5647 C12.9172,26.5607 13.3192,27.5137 13.8722,28.3417 C14.4312,29.1677 15.1372,29.8987 15.9712,30.4317 C16.7942,30.9887 17.7542,31.2377 18.7522,31.3807 C19.7452,31.5337 20.7612,31.5957 21.7792,31.6457 C23.8162,31.7427 25.8752,31.7767 27.9272,32.0547 C28.9532,32.1917 29.9632,32.3857 30.9662,32.5537 C31.9712,32.7207 32.9612,32.8557 33.9522,32.7967 C35.9432,32.7577 37.7672,31.7317 39.7802,31.2007 C41.7662,30.6317 43.7822,30.2567 45.7382,29.7107 C47.6912,29.1707 49.5882,28.4127 51.2352,27.2497 C52.0402,26.6667 52.7562,25.9437 53.3352,25.1277 C53.9002,24.3127 54.3492,23.3757 54.3812,22.3757 C54.3822,22.3147 54.4322,22.2667 54.4932,22.2677 C54.5512,22.2697 54.5982,22.3177 54.6002,22.3757 C54.6202,23.4397 54.2052,24.4607 53.6372,25.3317 C53.0652,26.2097 52.3422,26.9817 51.4992,27.6127 C49.8222,28.8597 47.8612,29.6537 45.8862,30.2257 C43.9052,30.8047 41.8942,31.2037 39.9512,31.7857 C38.9792,32.0707 38.0392,32.4337 37.0632,32.7777 C36.0912,33.1267 35.0392,33.3867 33.9832,33.4247 C32.9262,33.4877 31.8732,33.3427 30.8632,33.1737 C29.8472,33.0037 28.8482,32.8117 27.8442,32.6777 C25.8362,32.4177 23.7952,32.3407 21.7482,32.2217 C20.7232,32.1597 19.6942,32.0847 18.6652,31.9137 C18.1522,31.8297 17.6402,31.7047 17.1372,31.5367 C16.6312,31.3727 16.1492,31.1097 15.7162,30.8147 C14.8412,30.2187 14.1112,29.4307 13.5672,28.5357 C13.0252,27.6427 12.6472,26.6307 12.6052,25.5777 C12.6022,25.5137 12.6512,25.4607 12.7152,25.4577 C12.7762,25.4557 12.8292,25.5027 12.8342,25.5647" id="Fill-19" fill="#FEFEFE"></path>
                <path d="M12.923,29.4084 C13.187,30.4114 13.539,31.3954 14.059,32.2804 C14.573,33.1654 15.248,33.9564 16.092,34.5054 C16.509,34.7784 16.971,35.0084 17.441,35.1444 C17.922,35.2824 18.432,35.3684 18.943,35.4454 C19.965,35.5994 21.005,35.7014 22.044,35.7974 C24.124,35.9904 26.215,36.1284 28.303,36.4374 C28.826,36.5154 29.349,36.6044 29.872,36.7244 C30.133,36.7884 30.395,36.8544 30.657,36.9444 C30.921,37.0254 31.188,37.1624 31.407,37.2594 C32.324,37.6904 33.309,37.8854 34.282,37.7304 C34.761,37.6524 35.237,37.4874 35.703,37.2874 C36.18,37.0904 36.607,36.8434 37.126,36.6194 C38.136,36.2114 39.153,35.9724 40.16,35.6854 C42.175,35.1374 44.171,34.5404 46.083,33.7304 C48.001,32.9344 49.819,31.9144 51.495,30.6934 C51.912,30.3864 52.317,30.0614 52.714,29.7274 C53.089,29.4034 53.399,28.9974 53.652,28.5554 C54.152,27.6684 54.487,26.6734 54.639,25.6524 C54.647,25.5964 54.697,25.5584 54.752,25.5654 C54.805,25.5724 54.843,25.6224 54.839,25.6754 C54.736,26.7284 54.458,27.7754 53.944,28.7194 C53.689,29.1904 53.37,29.6374 52.962,30.0114 C52.567,30.3604 52.164,30.7014 51.747,31.0254 C50.081,32.3274 48.219,33.3644 46.286,34.2044 C44.352,35.0504 42.334,35.6794 40.32,36.2544 C39.319,36.5474 38.298,36.8164 37.366,37.1904 C36.462,37.6064 35.488,38.1664 34.381,38.3464 C33.818,38.4324 33.272,38.4244 32.716,38.3324 C32.165,38.2394 31.642,38.0504 31.152,37.8314 C30.251,37.3724 29.238,37.2244 28.211,37.0604 C26.157,36.7694 24.07,36.5994 21.987,36.3794 C20.944,36.2684 19.901,36.1534 18.857,35.9824 C18.335,35.8924 17.814,35.7894 17.292,35.6254 C16.761,35.4534 16.283,35.1964 15.835,34.8854 C14.938,34.2644 14.235,33.4014 13.748,32.4534 C13.248,31.5074 12.935,30.4854 12.714,29.4574 C12.701,29.3984 12.737,29.3424 12.796,29.3294 C12.852,29.3164 12.908,29.3524 12.923,29.4084" id="Fill-21" fill="#FEFEFE"></path>
                <path d="M54.423,38.5051 C53.772,40.2591 52.708,41.8911 51.27,43.1331 C50.556,43.7591 49.748,44.2671 48.909,44.6981 C48.49,44.9151 48.058,45.1071 47.626,45.2891 C47.202,45.4651 46.785,45.6561 46.375,45.8631 C45.554,46.2751 44.756,46.7511 43.925,47.1871 C43.518,47.4091 43.065,47.6051 42.696,47.8181 C42.314,48.0471 41.943,48.3171 41.573,48.5931 C40.104,49.7081 38.569,50.8731 36.764,51.5351 C34.98,52.2091 32.976,52.3901 31.107,51.9121 C29.227,51.4501 27.617,50.4411 25.917,49.7751 C24.222,49.0901 22.408,48.6481 20.659,47.9141 C19.792,47.5281 18.959,47.0381 18.235,46.4251 C17.512,45.8111 16.873,45.1161 16.292,44.3831 C16.251,44.3311 16.259,44.2561 16.311,44.2141 C16.36,44.1751 16.432,44.1821 16.474,44.2271 C17.729,45.5851 19.154,46.7821 20.865,47.4231 C22.561,48.1001 24.392,48.4971 26.148,49.2051 C27.902,49.9021 29.499,50.8981 31.252,51.3241 C32.994,51.7741 34.868,51.6091 36.555,50.9771 C38.26,50.3471 39.753,49.2601 41.247,48.1501 C41.625,47.8751 42.009,47.6011 42.427,47.3571 C42.868,47.1111 43.275,46.9461 43.687,46.7271 C44.507,46.3101 45.312,45.8401 46.159,45.4271 C46.581,45.2201 47.011,45.0281 47.448,44.8541 C47.874,44.6791 48.296,44.4981 48.704,44.2921 C49.522,43.8831 50.303,43.4011 51.008,42.8221 C52.426,41.6671 53.469,40.1051 54.218,38.4201 C54.243,38.3641 54.308,38.3391 54.364,38.3641 C54.418,38.3881 54.443,38.4501 54.423,38.5051" id="Fill-23" fill="#FEFEFE"></path>
                <path d="M56.3268,30.4846 C55.8218,30.6276 55.4828,31.1096 55.3208,31.6016 C55.1668,32.1276 55.0508,32.6866 54.9408,33.2406 C54.7168,34.3466 54.5338,35.4976 54.0258,36.5656 C53.5228,37.6446 52.6548,38.4966 51.7298,39.1796 C50.7928,39.8676 49.8008,40.4226 48.8048,40.9866 C46.7668,42.0806 44.5928,42.7936 42.4728,43.5916 C41.4208,43.9956 40.3398,44.3806 39.3898,44.9156 C38.9328,45.1636 38.5158,45.5496 38.0468,45.8956 C37.5878,46.2456 37.0978,46.5716 36.5768,46.8486 C36.0558,47.1256 35.4938,47.3396 34.9098,47.4716 C34.6188,47.5406 34.3208,47.5796 34.0228,47.6046 C33.7128,47.6226 33.3978,47.6086 33.1018,47.5556 C31.9098,47.3516 30.8518,46.8486 29.8328,46.3086 C29.3178,46.0416 28.8408,45.7056 28.3628,45.4836 C27.8738,45.2506 27.3508,45.0786 26.8158,44.9386 C25.7438,44.6606 24.6188,44.5136 23.5008,44.3416 C22.3788,44.1816 21.2488,44.0216 20.1248,43.7896 C19.0048,43.5516 17.8688,43.2736 16.8278,42.6926 C15.8298,42.1006 14.9138,41.3686 14.1688,40.4776 C13.4228,39.5896 12.8738,38.5466 12.5408,37.4466 C12.5218,37.3866 12.5558,37.3236 12.6148,37.3046 C12.6728,37.2876 12.7348,37.3196 12.7548,37.3776 C13.1168,38.4396 13.6818,39.4276 14.4268,40.2556 C15.1678,41.0866 16.0768,41.7616 17.0508,42.2926 C18.0178,42.7906 19.1308,43.0256 20.2328,43.2196 C21.3408,43.4116 22.4648,43.5436 23.5918,43.6996 C24.7208,43.8526 25.8518,44.0176 26.9808,44.3096 C27.5428,44.4596 28.1038,44.6446 28.6398,44.9026 C28.9038,45.0266 29.1788,45.1856 29.4118,45.3306 C29.6508,45.4746 29.8938,45.6136 30.1388,45.7486 C31.1168,46.2736 32.1468,46.7556 33.2018,46.9356 C33.4658,46.9836 33.7218,46.9936 33.9778,46.9806 C34.2458,46.9586 34.5128,46.9236 34.7748,46.8646 C35.2988,46.7476 35.8078,46.5546 36.2908,46.3016 C36.7738,46.0476 37.2338,45.7436 37.6798,45.4076 C38.1268,45.0836 38.5488,44.6886 39.0898,44.3886 C40.1298,43.8186 41.2068,43.4556 42.2758,43.0556 C44.4108,42.2766 46.5818,41.5856 48.5648,40.5456 C49.5508,40.0016 50.5508,39.4526 51.4528,38.8026 C52.3528,38.1546 53.1588,37.3606 53.6408,36.3786 C54.1338,35.3936 54.3388,34.2746 54.5828,33.1666 C54.7058,32.6076 54.8268,32.0546 55.0068,31.4946 C55.2068,30.9316 55.6498,30.3956 56.2758,30.2656 C56.3368,30.2536 56.3958,30.2926 56.4088,30.3526 C56.4208,30.4116 56.3828,30.4686 56.3268,30.4846" id="Fill-25" fill="#FEFEFE"></path>
                <path d="M11.2282,30.2541 C11.4772,30.4091 11.7072,30.5991 11.9012,30.8221 C12.0902,31.0501 12.2442,31.3051 12.3652,31.5721 C12.6072,32.1101 12.7182,32.6871 12.8242,33.2441 C13.0152,34.3471 13.4202,35.4001 14.1202,36.2551 C14.8092,37.1151 15.7262,37.7711 16.6822,38.3571 C17.1672,38.6421 17.6462,38.9591 18.1382,39.1391 C18.6482,39.3291 19.1902,39.4761 19.7362,39.6041 C21.9272,40.1101 24.1832,40.4041 26.4322,40.6481 L28.1222,40.8151 C28.7172,40.8631 29.3182,41.0181 29.8622,41.2381 C30.9562,41.6711 31.9162,42.2881 32.9662,42.4691 C33.4892,42.5661 34.0102,42.5391 34.5562,42.4521 C35.0932,42.3671 35.5942,42.2051 36.0652,41.9471 C36.5382,41.6871 37.0082,41.3511 37.5212,41.0671 C38.0312,40.7821 38.5652,40.5341 39.1132,40.3401 C41.3022,39.6201 43.4612,38.9931 45.5992,38.2211 C46.6662,37.8411 47.7232,37.4361 48.7482,36.9701 C49.7812,36.5111 50.7412,35.9591 51.5042,35.1471 C53.0542,33.5351 53.8992,31.3651 54.6312,29.2381 C54.6502,29.1791 54.7152,29.1471 54.7742,29.1671 C54.8322,29.1861 54.8632,29.2481 54.8472,29.3061 C54.5292,30.4001 54.1662,31.4871 53.6802,32.5291 C53.1952,33.5681 52.5982,34.5741 51.8042,35.4321 C51.0252,36.3091 49.9782,36.9231 48.9452,37.3941 C47.9052,37.8811 46.8432,38.3031 45.7732,38.6991 C43.6432,39.4981 41.4402,40.1661 39.3202,40.8961 C38.8002,41.0911 38.3012,41.3251 37.8202,41.5971 C37.3382,41.8641 36.8832,42.1941 36.3622,42.4881 C35.8372,42.7801 35.2432,42.9751 34.6572,43.0671 C34.0832,43.1651 33.4542,43.2011 32.8552,43.0911 C31.6432,42.8781 30.6442,42.2291 29.6272,41.8401 C29.1162,41.6371 28.6032,41.5091 28.0642,41.4661 C27.4962,41.4151 26.9272,41.3641 26.3612,41.2961 C24.0942,41.0261 21.8332,40.7091 19.5982,40.1691 C19.0392,40.0341 18.4852,39.8671 17.9352,39.6501 C17.3622,39.4221 16.8952,39.0881 16.4102,38.7881 C15.4482,38.1681 14.4982,37.4591 13.7812,36.5201 C13.0562,35.5881 12.6452,34.4391 12.5022,33.2981 C12.4212,32.7371 12.3382,32.1831 12.1342,31.6701 C11.9372,31.1571 11.5972,30.7071 11.1352,30.4021 C11.0942,30.3761 11.0822,30.3221 11.1072,30.2811 C11.1332,30.2411 11.1872,30.2301 11.2282,30.2541" id="Fill-27" fill="#FEFEFE"></path>
                <path d="M20.2995,59.675 C20.8525,60.897 21.8375,61.867 22.9595,62.571 C23.5235,62.92 24.1215,63.213 24.7455,63.431 C25.3825,63.658 26.0265,63.858 26.6705,64.048 C29.2515,64.783 31.9395,65.116 34.6085,64.826 C35.9365,64.688 37.2675,64.416 38.5415,64.03 C39.8155,63.631 41.0465,63.079 42.2025,62.398 C44.4865,61.019 46.5565,59.106 47.6195,56.614 L47.6205,56.612 C47.6445,56.555 47.7105,56.529 47.7675,56.553 C47.8215,56.576 47.8485,56.639 47.8275,56.695 C47.3515,57.991 46.5805,59.173 45.6475,60.189 C44.7135,61.207 43.6335,62.086 42.4695,62.831 C41.3005,63.568 40.0485,64.175 38.7355,64.629 C37.4125,65.065 36.0615,65.344 34.6835,65.509 C33.3075,65.669 31.9125,65.686 30.5305,65.555 C29.1475,65.429 27.7865,65.113 26.4745,64.687 C25.8205,64.469 25.1755,64.224 24.5415,63.962 C23.8915,63.696 23.2765,63.351 22.7045,62.952 C21.5685,62.152 20.5885,61.071 20.0825,59.765 C20.0595,59.705 20.0895,59.637 20.1505,59.613 C20.2085,59.591 20.2745,59.619 20.2995,59.675" id="Fill-29" fill="#FEFEFE"></path>
                <path d="M41.2975,1.5481 C41.2575,1.2451 40.8715,1.0041 40.5055,0.8561 C40.1275,0.7021 39.7195,0.6001 39.3065,0.5221 C38.4795,0.3691 37.6315,0.3011 36.7835,0.2761 C35.0855,0.2241 33.3815,0.3451 31.6935,0.5541 C30.0065,0.7841 28.3325,1.1171 26.7035,1.6001 C25.8915,1.8441 25.0885,2.1251 24.3275,2.4861 C23.9485,2.6671 23.5765,2.8661 23.2525,3.1181 C22.9415,3.3601 22.6355,3.7041 22.6815,3.9991 C22.7365,4.2871 23.1205,4.5001 23.4865,4.6301 C23.8655,4.7631 24.2725,4.8461 24.6825,4.9031 C25.5065,5.0211 26.3485,5.0441 27.1885,5.0581 C28.8715,5.0691 30.5645,4.9771 32.2435,4.7641 C33.9235,4.5641 35.5965,4.2671 37.2275,3.8241 C38.0415,3.6021 38.8455,3.3381 39.6095,2.9981 C39.9905,2.8271 40.3605,2.6331 40.6905,2.3981 C41.0075,2.1691 41.3255,1.8531 41.2975,1.5481 M41.6495,1.5031 C41.6825,1.7861 41.5625,2.0421 41.4205,2.2301 C41.2765,2.4221 41.1045,2.5741 40.9285,2.7141 C40.5715,2.9871 40.1885,3.2031 39.7975,3.3961 C39.0135,3.7771 38.1985,4.0731 37.3755,4.3291 C35.7265,4.8411 34.0355,5.1891 32.3325,5.4411 C30.6275,5.6661 28.9045,5.8241 27.1725,5.7621 C26.3075,5.7371 25.4405,5.6391 24.5825,5.4591 C24.1535,5.3651 23.7265,5.2481 23.3105,5.0671 C23.1035,4.9721 22.8985,4.8641 22.7085,4.7101 C22.5235,4.5601 22.3415,4.3351 22.3045,4.0471 C22.2725,3.7541 22.4155,3.5101 22.5605,3.3301 C22.7085,3.1411 22.8855,3.0021 23.0635,2.8661 C23.4245,2.6091 23.8075,2.4001 24.2015,2.2191 C24.9875,1.8571 25.8045,1.5811 26.6285,1.3431 C28.2795,0.8711 29.9675,0.5601 31.6655,0.3391 C33.3605,0.1101 35.0725,-0.0189 36.7895,0.0021 C37.6475,0.0151 38.5075,0.0691 39.3625,0.2131 C39.7895,0.2861 40.2155,0.3851 40.6315,0.5461 C40.8385,0.6291 41.0435,0.7271 41.2345,0.8701 C41.4205,1.0101 41.6065,1.2211 41.6495,1.5031" id="Fill-31" fill="#FEFEFE"></path>
                <path d="M44.5885,2.6252 C44.9365,2.7392 45.2905,2.8722 45.6005,3.1122 C45.9075,3.3312 46.1995,3.7432 46.1365,4.1962 C46.0845,4.6382 45.8335,4.9782 45.5725,5.2512 C45.3055,5.5282 45.0085,5.7582 44.7005,5.9642 C43.4635,6.7792 42.1045,7.3242 40.7375,7.8112 C37.9935,8.7612 35.1555,9.3922 32.2925,9.8212 C30.8615,10.0402 29.4195,10.1872 27.9725,10.2812 C26.5255,10.3732 25.0715,10.4082 23.6175,10.3192 C22.1675,10.2232 20.6975,10.0902 19.2895,9.5522 C18.9395,9.4132 18.5915,9.2482 18.2765,8.9962 C18.1185,8.8732 17.9725,8.7182 17.8585,8.5322 C17.7525,8.3412 17.6825,8.1132 17.7015,7.8892 C17.7375,7.4342 18.0055,7.1032 18.2675,6.8372 C18.5385,6.5702 18.8445,6.3612 19.1585,6.1732 C19.2115,6.1412 19.2805,6.1582 19.3135,6.2112 C19.3425,6.2612 19.3295,6.3252 19.2845,6.3592 C19.0035,6.5752 18.7375,6.8102 18.5135,7.0662 C18.2955,7.3222 18.1215,7.6252 18.1315,7.9022 C18.1405,8.1762 18.3225,8.4112 18.5835,8.5962 C18.8415,8.7802 19.1585,8.9142 19.4825,9.0212 C20.8015,9.4262 22.2355,9.5502 23.6505,9.6062 C26.4945,9.6952 29.3575,9.4822 32.1885,9.0932 C35.0185,8.6952 37.8365,8.1382 40.5555,7.2692 C41.9065,6.8252 43.2535,6.3142 44.4405,5.5702 C44.7345,5.3842 45.0145,5.1762 45.2535,4.9392 C45.4915,4.7062 45.6925,4.4332 45.7325,4.1502 C45.7805,3.8722 45.6345,3.5912 45.3845,3.3732 C45.1365,3.1562 44.8305,2.9782 44.5095,2.8342 C44.4525,2.8102 44.4265,2.7442 44.4505,2.6872 C44.4735,2.6352 44.5345,2.6082 44.5885,2.6252" id="Fill-33" fill="#FEFEFE"></path>
                <path d="M49.1838,6.8557 C49.3398,7.0037 49.4788,7.1847 49.5638,7.4007 C49.6458,7.6147 49.6668,7.8627 49.6158,8.0877 C49.5228,8.5507 49.2318,8.9087 48.9338,9.2097 C48.3208,9.8117 47.5898,10.2297 46.8538,10.6097 C45.3708,11.3527 43.8088,11.8937 42.2338,12.3627 C39.0768,13.2897 35.8368,13.8917 32.5758,14.2647 C30.9448,14.4547 29.3078,14.5857 27.6648,14.6577 C26.0238,14.7267 24.3758,14.7347 22.7318,14.6157 C21.0898,14.4997 19.4388,14.3137 17.8358,13.8347 C17.0458,13.5797 16.2258,13.3057 15.5668,12.6967 C15.2398,12.4067 14.9878,11.9347 15.0438,11.4587 C15.1048,10.9837 15.3968,10.6237 15.6948,10.3347 C15.7398,10.2917 15.8108,10.2937 15.8538,10.3367 C15.8948,10.3797 15.8948,10.4467 15.8578,10.4907 C15.6008,10.7867 15.3918,11.1357 15.3738,11.4877 C15.3648,11.8357 15.5528,12.1547 15.8478,12.3837 C16.4378,12.8487 17.2158,13.1067 17.9828,13.3047 C19.5388,13.6737 21.1568,13.8357 22.7718,13.9187 C26.0088,14.0547 29.2668,13.9337 32.4968,13.5687 C35.7258,13.1967 38.9428,12.6617 42.0788,11.8157 C43.6408,11.3837 45.1898,10.8797 46.6448,10.1877 C47.3628,9.8337 48.0768,9.4417 48.6528,8.9177 C48.9288,8.6527 49.1978,8.3577 49.2858,8.0117 C49.3088,7.9267 49.3248,7.8407 49.3198,7.7527 C49.3318,7.6667 49.3128,7.5787 49.2918,7.4927 C49.2448,7.3207 49.1458,7.1567 49.0208,7.0107 C48.9808,6.9637 48.9858,6.8927 49.0328,6.8517 C49.0768,6.8137 49.1418,6.8167 49.1838,6.8557" id="Fill-35" fill="#FEFEFE"></path>
                <path d="M51.7433,10.3137 C52.1073,10.5887 52.4553,11.0137 52.4653,11.5367 C52.4933,12.0547 52.2323,12.5117 51.9463,12.8797 C51.6513,13.2537 51.2973,13.5617 50.9303,13.8407 C50.5633,14.1227 50.1773,14.3727 49.7813,14.6027 C48.1933,15.5177 46.4963,16.1897 44.7813,16.7817 C41.3413,17.9467 37.7923,18.7507 34.2123,19.3137 C30.6313,19.8777 26.9713,20.1277 23.3373,19.7977 C21.5253,19.6217 19.7073,19.3347 17.9693,18.7367 C17.1033,18.4367 16.2443,18.0887 15.4653,17.5787 C15.0783,17.3227 14.7063,17.0347 14.3923,16.6807 C14.0783,16.3327 13.8263,15.8947 13.7703,15.4107 C13.7633,15.3507 13.8063,15.2957 13.8673,15.2897 C13.9223,15.2827 13.9733,15.3197 13.9863,15.3737 L13.9883,15.3797 C14.1833,16.2157 14.9393,16.7927 15.6853,17.2157 C16.4513,17.6437 17.2853,17.9587 18.1373,18.2067 C19.8453,18.6887 21.6163,18.9657 23.3963,19.0987 C26.9623,19.3697 30.5563,19.1337 34.1053,18.6077 C37.6563,18.0747 41.1893,17.3537 44.6093,16.2627 C46.3123,15.7097 47.9993,15.0747 49.5583,14.2127 C50.3273,13.7787 51.0913,13.2927 51.6553,12.6427 C51.9303,12.3227 52.1603,11.9427 52.1543,11.5437 C52.1783,11.1437 51.9293,10.7637 51.6063,10.4807 C51.5613,10.4407 51.5563,10.3737 51.5963,10.3287 C51.6333,10.2857 51.6983,10.2807 51.7433,10.3137" id="Fill-37" fill="#FEFEFE"></path>
                <path d="M10.612,33.9319 C10.447,34.6389 10.303,35.3559 10.295,36.0709 C10.27,36.7879 10.486,37.4769 10.849,38.0959 C11.608,39.3279 12.48,40.5049 13.36,41.6689 C13.797,42.2569 14.214,42.8719 14.556,43.5319 C14.909,44.1949 15.133,44.8909 15.471,45.5239 C15.799,46.1669 16.171,46.7909 16.554,47.4109 L17.135,48.3379 C17.334,48.6499 17.511,48.9669 17.729,49.2339 C18.637,50.3199 19.778,51.2729 20.96,52.0589 C22.17,52.8469 23.467,53.4629 24.819,53.9629 C25.495,54.2139 26.186,54.4309 26.879,54.6499 L28.966,55.3049 C30.35,55.7289 31.751,56.0429 33.174,56.0759 C34.596,56.1079 36.023,55.8939 37.373,55.4439 C38.726,54.9929 39.998,54.3099 41.201,53.5139 C42.412,52.7259 43.562,51.8299 44.752,50.9709 C45.347,50.5419 45.963,50.1219 46.587,49.7389 C47.201,49.3579 47.79,48.9399 48.362,48.5009 C49.506,47.6219 50.554,46.6179 51.443,45.4889 C51.887,44.9239 52.287,44.3259 52.626,43.6959 C52.955,43.0369 53.392,42.4089 53.843,41.8309 C54.295,41.2419 54.796,40.7109 55.203,40.1269 C55.616,39.5419 55.979,38.9199 56.234,38.2539 C56.755,36.9269 56.841,35.4399 56.463,34.0459 C56.447,33.9889 56.482,33.9289 56.539,33.9129 C56.595,33.8989 56.653,33.9309 56.671,33.9859 C56.894,34.6919 57.018,35.4379 56.999,36.1869 C56.98,36.9349 56.83,37.6789 56.577,38.3829 C56.326,39.0889 55.963,39.7479 55.548,40.3669 C55.135,40.9939 54.635,41.5359 54.205,42.1109 C53.764,42.6889 53.369,43.2699 53.049,43.9219 C52.7,44.5819 52.29,45.2059 51.835,45.7929 C50.925,46.9689 49.854,48.0089 48.688,48.9189 C48.105,49.3729 47.504,49.8059 46.879,50.1999 C46.263,50.5889 45.677,51.0019 45.092,51.4359 C43.925,52.3019 42.781,53.2219 41.552,54.0439 C40.324,54.8649 39.003,55.5849 37.583,56.0659 C36.163,56.5459 34.659,56.7809 33.159,56.7509 C31.654,56.7229 30.175,56.3929 28.768,55.9679 C27.363,55.5329 25.97,55.1259 24.58,54.5969 C23.192,54.0779 21.865,53.3659 20.652,52.5189 C20.035,52.0899 19.475,51.6079 18.928,51.1109 C18.385,50.6089 17.858,50.0879 17.399,49.4879 C17.165,49.1789 16.992,48.8509 16.8,48.5459 L16.23,47.6089 C15.852,46.9819 15.483,46.3439 15.156,45.6809 C14.814,45.0189 14.596,44.3119 14.267,43.6799 C13.944,43.0369 13.546,42.4339 13.119,41.8449 C12.253,40.6669 11.397,39.4829 10.638,38.2159 C10.263,37.5769 10.03,36.8189 10.061,36.0689 C10.073,35.3199 10.225,34.5939 10.394,33.8799 C10.408,33.8209 10.468,33.7839 10.529,33.7969 C10.589,33.8119 10.626,33.8719 10.612,33.9319" id="Fill-39" fill="#FEFEFE"></path>
                <path d="M57.5856,39.3606 C57.5916,40.0486 57.3316,40.7026 57.0256,41.2856 C56.7226,41.8736 56.3666,42.4206 56.1156,43.0006 C55.8616,43.5716 55.7046,44.2096 55.5056,44.8346 C55.4066,45.1486 55.3036,45.4646 55.1666,45.7776 C55.0956,45.9336 55.0176,46.0896 54.9086,46.2426 C54.8026,46.3856 54.6416,46.5686 54.3776,46.6036 C54.1346,46.6366 53.9136,46.5126 53.7756,46.4016 L53.5876,46.2456 C53.5636,46.2246 53.5376,46.2106 53.5406,46.2136 C53.5376,46.2216 53.6196,46.2146 53.6306,46.1946 C53.6276,46.1816 53.5546,46.3966 53.5146,46.5426 L53.3626,47.0126 C53.1536,47.6366 52.9236,48.2536 52.6646,48.8596 C52.1516,50.0846 51.4176,51.2296 50.4626,52.1716 C49.5086,53.1096 48.4406,53.8616 47.4416,54.6966 C46.4256,55.5176 45.3996,56.3346 44.3396,57.1076 C43.2876,57.8786 42.2256,58.6566 41.0876,59.3356 C39.9516,60.0126 38.7306,60.5856 37.4406,60.9486 C36.1496,61.3026 34.8296,61.4926 33.5026,61.5556 C32.1776,61.6206 30.8456,61.5636 29.5236,61.3426 C28.8676,61.2276 28.1916,61.0706 27.5656,60.8076 C26.9426,60.5496 26.3506,60.2546 25.7676,59.9416 C24.6026,59.3166 23.4896,58.6146 22.4226,57.8206 C21.8816,57.4106 21.4136,56.9526 20.9316,56.5086 L19.5066,55.1586 C18.5736,54.2476 17.6016,53.3666 16.7186,52.3856 C15.8286,51.4196 15.0426,50.3106 14.5386,49.0766 C14.2816,48.4586 14.0916,47.8336 13.9096,47.1946 L13.4396,45.2916 L13.4486,45.3176 C13.4346,45.2846 13.4186,45.2486 13.4076,45.2286 C13.4026,45.2186 13.3936,45.2106 13.4056,45.2226 C13.4016,45.2306 13.4926,45.2746 13.5546,45.2436 C13.6206,45.2046 13.5706,45.2336 13.5596,45.2626 L13.4916,45.3696 C13.3956,45.5226 13.2456,45.7056 13.0216,45.7836 C12.7956,45.8526 12.5856,45.8546 12.3576,45.7276 C12.1596,45.5986 12.0566,45.4316 11.9606,45.2736 C11.6136,44.6316 11.4576,43.9646 11.1996,43.3506 C11.1366,43.2006 11.0686,43.0506 10.9876,42.9236 C10.8926,42.7786 10.8076,42.6186 10.7286,42.4636 C10.5726,42.1466 10.4446,41.8226 10.3326,41.4946 C10.1136,40.8356 9.9666,40.1606 9.8716,39.4786 C9.8626,39.4176 9.9056,39.3606 9.9676,39.3516 C10.0256,39.3436 10.0796,39.3816 10.0926,39.4376 C10.2496,40.0966 10.4326,40.7486 10.6686,41.3756 C10.7846,41.6886 10.9156,41.9976 11.0676,42.2896 C11.1466,42.4356 11.2266,42.5746 11.3176,42.7146 C11.4186,42.8766 11.4916,43.0396 11.5606,43.2016 C11.8276,43.8446 11.9946,44.5196 12.3006,45.0786 C12.3776,45.2126 12.4706,45.3386 12.5636,45.3936 C12.6286,45.4416 12.7946,45.4526 12.8876,45.4146 C12.9906,45.3796 13.0776,45.2886 13.1616,45.1566 L13.2306,45.0476 C13.2666,45.0076 13.2636,44.9596 13.4056,44.8806 C13.4556,44.8606 13.5126,44.8556 13.5696,44.8726 C13.6136,44.8866 13.6546,44.9166 13.6696,44.9316 C13.7136,44.9726 13.7286,45.0016 13.7456,45.0276 C13.7766,45.0816 13.7936,45.1256 13.8136,45.1706 L13.8176,45.1806 L13.8216,45.1966 L14.2916,47.0936 C14.4666,47.7106 14.6596,48.3366 14.9066,48.9226 C15.3966,50.1096 16.1456,51.1616 17.0226,52.1106 C17.8916,53.0676 18.8506,53.9496 19.8176,54.8256 C20.7786,55.6936 21.7666,56.5836 22.7816,57.3316 C23.8336,58.0636 24.9666,58.7026 26.1036,59.3066 C26.6746,59.6036 27.2556,59.8836 27.8426,60.1166 C28.4206,60.3606 29.0226,60.5086 29.6496,60.6246 C30.9006,60.8456 32.1916,60.9146 33.4726,60.8626 C34.7526,60.8136 36.0346,60.6396 37.2636,60.3136 C39.7366,59.6496 41.8906,58.1546 44.0046,56.6426 C45.0646,55.8916 46.0926,55.0956 47.1176,54.2906 C48.1316,53.4656 49.2156,52.7206 50.1356,51.8376 C51.0516,50.9546 51.7756,49.8726 52.2786,48.6946 C52.5326,48.1016 52.7596,47.4936 52.9646,46.8806 L53.1136,46.4186 L53.1856,46.1826 C53.2236,46.0916 53.2276,46.0036 53.3656,45.8706 C53.4386,45.7946 53.6136,45.7806 53.6856,45.8196 C53.7656,45.8506 53.8056,45.8846 53.8456,45.9146 L54.0336,46.0716 C54.1476,46.1596 54.2416,46.2006 54.3296,46.1876 C54.4766,46.1866 54.6716,45.8786 54.7876,45.6076 C54.9146,45.3246 55.0166,45.0186 55.1146,44.7116 C55.3146,44.0956 55.4686,43.4576 55.7516,42.8366 C56.3136,41.6236 57.2546,40.6316 57.3556,39.3536 C57.3596,39.2906 57.4146,39.2426 57.4786,39.2466 C57.5386,39.2506 57.5846,39.3016 57.5856,39.3606" id="Fill-41" fill="#FEFEFE"></path>
            </g>
        </g>
    </g>
</svg>