<svg width="160" height="16" xmlns="http://www.w3.org/2000/svg" xmlns:xlink="http://www.w3.org/1999/xlink"><defs><path id="a" d="M0 15.645h159.78V.41H0z"/></defs><g fill="none" fill-rule="evenodd"><path d="M1.962 13.692h3.46c1.598 0 2.873-.85 2.873-2.528 0-1.458-1.011-2.53-2.792-2.53h-3.54v5.058zm0-6.798h2.833c.688 0 3.035 0 3.035-2.306 0-2.205-1.841-2.205-2.954-2.205H1.962v4.511zM0 .724h5.22C7 .724 7.99.906 8.902 1.796c.627.607 1.032 1.457 1.032 2.61 0 2.407-1.76 3.035-2.468 3.297.85.243 2.913.85 2.913 3.642 0 1.983-1.275 2.995-1.76 3.318-1.012.668-2.145.668-3.298.668H.001V.724zM14.02 7.016h3.197c.223 0 1.376 0 1.922-.324.283-.162.991-.688.991-1.902 0-2.367-2.104-2.367-2.913-2.367H14.02v4.593zM12.058.724h5.219c.75 0 2.287 0 3.359.688 1.092.688 1.618 1.8 1.618 2.974 0 1.031-.384 1.942-1.031 2.59-.628.627-1.275.829-1.72.95 1.396.364 2.023.992 2.225 2.812.203 1.72.345 2.974.911 4.593h-2.165c-.324-.971-.526-2.751-.668-3.864-.242-2.124-.748-2.732-3.196-2.732h-2.55v6.596h-2.002V.724z" fill="#FFF"/><mask id="b" fill="#fff"><use xlink:href="#a"/></mask><path fill="#FFF" mask="url(#b)" d="M24.338 15.33h2.023V.724h-2.023zM28.81.724h2.003V13.53h6.797v1.8h-8.8zM38.804.724h2.003V13.53h6.798v1.8h-8.801zM48.697 15.33h2.023V.724h-2.023zM55.778 9.889h5.523l-2.69-7.162-2.833 7.162zm1.84-9.165h2.166l5.907 14.607h-2.205l-1.578-3.803h-6.777l-1.579 3.803H51.47L57.619.724zM66.56.724h2.813l7.183 12.078V.724h1.86V15.33h-2.589L68.402 2.929v12.402h-1.841zM83.94 15.331V2.444h-4.897V.724H90.84v1.72h-4.896V15.33zM99.268.693h3.582l4.127 12.038L111.206.693h3.338v14.608h-1.983V2.15l-4.795 13.15h-1.922l-4.613-13.07V15.3h-1.963zM117.072 15.3h2.023V.694h-2.023zM121.584.693h2.812l7.182 12.079V.693h1.861v14.608h-2.59l-7.424-12.402V15.3h-1.841zM137.951 13.641h1.983c1.396 0 2.852-.08 3.823-.809 1.862-1.396 1.923-3.783 1.923-4.633 0-.546-.041-3.035-1.417-4.551-.93-1.033-2.103-1.275-3.884-1.275h-2.428V13.64zM135.928.693h4.229c1.962 0 4.268 0 5.887 1.902 1.295 1.517 1.8 3.52 1.8 5.524 0 3.155-1.315 5.098-2.427 5.988-1.437 1.194-3.237 1.194-5.382 1.194h-4.107V.693zM150.737 11.032c.04 1.011.162 2.893 3.52 2.893 3.035 0 3.42-1.882 3.42-2.61 0-1.64-1.316-1.962-3.36-2.468-2.224-.546-3.216-.79-3.964-1.295-1.194-.81-1.518-1.902-1.518-2.873 0-2.974 2.813-4.269 5.564-4.269.971 0 2.933.162 4.107 1.436.81.89.85 1.882.89 2.49h-2.104c-.101-1.822-1.64-2.227-3.075-2.227-2.023 0-3.237.911-3.237 2.367 0 1.295.85 1.74 2.63 2.166 3.48.89 3.864.97 4.714 1.537 1.356.89 1.456 2.307 1.456 2.913 0 2.59-2.023 4.553-5.766 4.553-1.112 0-3.378-.183-4.531-1.66-.83-1.072-.85-2.245-.85-2.953h2.104z"/></g></svg>