<?xml version="1.0" encoding="UTF-8"?>
<svg width="24px" height="24px" viewBox="0 0 24 24" version="1.1" xmlns="http://www.w3.org/2000/svg" xmlns:xlink="http://www.w3.org/1999/xlink">
    <!-- Generator: Sketch 53.1 (72631) - https://sketchapp.com -->
    <title>Spotify_Icon_RGB_White</title>
    <desc>Created with Sketch.</desc>
    <g id="BM-Website-1.0" stroke="none" stroke-width="1" fill="none" fill-rule="evenodd">
        <g id="BM---Mobile-Menu---Closed" transform="translate(-324.000000, -336.000000)" fill="#FFFFFE">
            <path d="M343.313203,346.858328 C339.464259,344.792435 333.115512,344.602482 329.441234,345.610364 C328.851074,345.772223 328.227122,345.471186 328.04832,344.937927 C327.869518,344.404282 328.202312,343.84074 328.792757,343.678623 C333.010569,342.521511 340.022194,342.74497 344.453171,345.12221 C344.983873,345.407009 345.15797,346.026481 344.843427,346.505357 C344.528599,346.985006 343.842621,347.143128 343.313203,346.858328 Z M342.857821,350.554475 C342.578802,350.993921 341.986881,351.131775 341.534765,350.86193 C338.219391,348.883781 333.163907,348.310628 329.241587,349.466372 C328.7329,349.615523 328.195782,349.337241 328.041246,348.844312 C327.888036,348.350669 328.174863,347.830141 328.682665,347.679988 C333.163318,346.360079 338.733528,346.999298 342.541383,349.270888 C342.9935,349.541162 343.135808,350.11603 342.857821,350.554475 Z M341.886524,353.67109 C341.663927,353.995209 341.188706,354.096726 340.825007,353.899208 C337.916447,352.320771 334.255492,351.964346 329.944048,352.838731 C329.528582,352.923306 329.114447,352.692168 329.019639,352.323266 C328.924536,351.954496 329.183962,351.586776 329.600316,351.502595 C334.318499,350.544948 338.365636,350.957056 341.630352,352.728415 C341.994347,352.925801 342.108974,353.348022 341.886524,353.67109 Z M336,336 C329.372724,336 324,341.37258 324,347.999857 C324,354.627849 329.372724,360 336,360 C342.627563,360 348,354.627849 348,347.999857 C348,341.37258 342.627563,336 336,336 L336,336 Z" id="Spotify_Icon_RGB_White"></path>
        </g>
    </g>
</svg>