<?xml version="1.0" standalone="no"?>
<!DOCTYPE svg PUBLIC "-//W3C//DTD SVG 20010904//EN"
 "http://www.w3.org/TR/2001/REC-SVG-20010904/DTD/svg10.dtd">
<svg version="1.0" xmlns="http://www.w3.org/2000/svg"
 width="260.000000pt" height="260.000000pt" viewBox="0 0 260.000000 260.000000"
 preserveAspectRatio="xMidYMid meet">
<metadata>
Created by potrace 1.11, written by Peter Selinger 2001-2013
</metadata>
<g transform="translate(0.000000,260.000000) scale(0.100000,-0.100000)"
fill="#000000" stroke="none">
<path d="M0 1300 l0 -1300 1300 0 1300 0 0 1300 0 1300 -1300 0 -1300 0 0
-1300z m1605 886 c123 -35 220 -116 276 -232 33 -68 34 -72 34 -199 0 -122 -2
-134 -29 -192 -36 -78 -113 -153 -198 -193 -54 -26 -60 -31 -40 -36 60 -17
167 -78 210 -121 172 -172 160 -494 -24 -675 -66 -64 -110 -92 -194 -120 -62
-21 -83 -22 -507 -26 l-443 -3 0 911 0 912 428 -4 c367 -4 435 -7 487 -22z"/>
<path d="M940 1720 l0 -280 208 0 c115 0 235 5 267 11 121 22 201 85 230 181
39 134 -6 278 -103 327 -66 33 -137 41 -372 41 l-230 0 0 -280z"/>
<path d="M930 904 l0 -315 268 3 c309 5 329 9 417 89 70 65 90 116 90 229 0
99 -21 153 -83 214 -82 84 -141 96 -452 96 l-240 0 0 -316z"/>
</g>
</svg>
